<svg width="56" height="56" viewBox="0 0 56 56" fill="none" xmlns="http://www.w3.org/2000/svg">
<path d="M49.3281 14.7656L37.8438 11.4844L34.5625 0H11.5938C8.87545 0 6.67188 2.20358 6.67188 4.92188V51.0781C6.67188 53.7964 8.87545 56 11.5938 56H44.4062C47.1245 56 49.3281 53.7964 49.3281 51.0781V14.7656Z" fill="#4086F4"/>
<path d="M49.3281 14.7656V51.0781C49.3281 53.7964 47.1245 56 44.4062 56H28V0H34.5625L37.8438 11.4844L49.3281 14.7656Z" fill="#4175DF"/>
<path d="M49.3281 14.7656H37.8438C36.0391 14.7656 34.5625 13.2891 34.5625 11.4844V0C34.9891 0 35.4156 0.164062 35.7108 0.492297L48.8358 13.6173C49.1641 13.9125 49.3281 14.3391 49.3281 14.7656Z" fill="#80AEF8"/>
<path d="M37.8438 26.3594H18.1562C17.2494 26.3594 16.5156 25.6256 16.5156 24.7188C16.5156 23.8119 17.2494 23.0781 18.1562 23.0781H37.8438C38.7506 23.0781 39.4844 23.8119 39.4844 24.7188C39.4844 25.6256 38.7506 26.3594 37.8438 26.3594Z" fill="#FFF5F5"/>
<path d="M37.8438 32.9219H18.1562C17.2494 32.9219 16.5156 32.1881 16.5156 31.2812C16.5156 30.3744 17.2494 29.6406 18.1562 29.6406H37.8438C38.7506 29.6406 39.4844 30.3744 39.4844 31.2812C39.4844 32.1881 38.7506 32.9219 37.8438 32.9219Z" fill="#FFF5F5"/>
<path d="M37.8438 39.4844H18.1562C17.2494 39.4844 16.5156 38.7506 16.5156 37.8438C16.5156 36.9369 17.2494 36.2031 18.1562 36.2031H37.8438C38.7506 36.2031 39.4844 36.9369 39.4844 37.8438C39.4844 38.7506 38.7506 39.4844 37.8438 39.4844Z" fill="#FFF5F5"/>
<path d="M31.2812 46.0469H18.1562C17.2494 46.0469 16.5156 45.3131 16.5156 44.4062C16.5156 43.4994 17.2494 42.7656 18.1562 42.7656H31.2812C32.1881 42.7656 32.9219 43.4994 32.9219 44.4062C32.9219 45.3131 32.1881 46.0469 31.2812 46.0469Z" fill="#FFF5F5"/>
<path d="M28 46.0469H31.2812C32.1881 46.0469 32.9219 45.3131 32.9219 44.4062C32.9219 43.4994 32.1881 42.7656 31.2812 42.7656H28V46.0469Z" fill="#E3E7EA"/>
<path d="M28 39.4844H37.8438C38.7506 39.4844 39.4844 38.7506 39.4844 37.8438C39.4844 36.9369 38.7506 36.2031 37.8438 36.2031H28V39.4844Z" fill="#E3E7EA"/>
<path d="M28 32.9219H37.8438C38.7506 32.9219 39.4844 32.1881 39.4844 31.2812C39.4844 30.3744 38.7506 29.6406 37.8438 29.6406H28V32.9219Z" fill="#E3E7EA"/>
<path d="M28 26.3594H37.8438C38.7506 26.3594 39.4844 25.6256 39.4844 24.7188C39.4844 23.8119 38.7506 23.0781 37.8438 23.0781H28V26.3594Z" fill="#E3E7EA"/>
</svg>
