<svg width="1440" height="1774" viewBox="0 0 1440 1774" fill="none" xmlns="http://www.w3.org/2000/svg">
<g opacity="0.5" filter="url(#filter0_f_410_36)">
<path d="M349.593 511.504C541.495 679.045 301.978 793.434 199.553 820.879C97.1274 848.323 -68.9256 960.628 -57.5445 620.596C-73.4464 439.542 -78.5729 331.694 23.8526 304.25C126.278 276.805 194.954 396.095 349.593 511.504Z" fill="url(#paint0_radial_410_36)"/>
</g>
<g opacity="0.5" filter="url(#filter1_f_410_36)">
<path d="M1523.59 1124.5C1715.49 1292.04 1475.98 1406.43 1373.55 1433.88C1271.13 1461.32 1105.07 1573.63 1116.46 1233.6C1100.55 1052.54 1095.43 944.694 1197.85 917.249C1300.28 889.804 1368.95 1009.09 1523.59 1124.5Z" fill="url(#paint1_radial_410_36)"/>
</g>
<path d="M1146.11 637.661C1145.49 637.661 1145 637.154 1145 636.554C1145 635.936 1145.51 635.446 1146.11 635.446C1146.73 635.446 1147.21 635.956 1147.21 636.554C1147.21 637.176 1146.7 637.661 1146.11 637.661ZM1162.58 634.541C1162.42 633.943 1162.78 633.345 1163.35 633.19C1163.95 633.013 1164.55 633.367 1164.73 633.965C1164.88 634.543 1164.55 635.161 1163.95 635.316C1163.84 635.338 1163.75 635.36 1163.66 635.36C1163.18 635.358 1162.73 635.028 1162.58 634.541ZM1128.28 634.939C1127.7 634.762 1127.37 634.142 1127.55 633.544C1127.75 632.969 1128.37 632.637 1128.94 632.836C1129.52 633.013 1129.85 633.633 1129.68 634.209C1129.52 634.696 1129.08 634.984 1128.61 634.984C1128.5 634.981 1128.39 634.962 1128.28 634.939ZM1178.9 627.696C1178.57 627.167 1178.72 626.479 1179.25 626.171C1179.76 625.839 1180.45 625.994 1180.78 626.501C1181.09 627.032 1180.94 627.696 1180.43 628.031C1180.25 628.141 1180.05 628.208 1179.83 628.208C1179.48 628.208 1179.12 628.031 1178.9 627.696ZM1112.38 626.326C1111.92 625.925 1111.87 625.219 1112.27 624.754C1112.67 624.286 1113.36 624.244 1113.82 624.641C1114.29 625.017 1114.33 625.726 1113.95 626.191C1113.73 626.456 1113.42 626.589 1113.09 626.589C1112.85 626.589 1112.58 626.501 1112.38 626.326ZM1192.98 616.937C1192.56 616.494 1192.58 615.784 1193.03 615.365C1193.47 614.944 1194.18 614.964 1194.6 615.409C1195.02 615.852 1195 616.563 1194.55 616.981C1194.33 617.181 1194.07 617.294 1193.8 617.294C1193.49 617.291 1193.2 617.159 1192.98 616.937ZM1205.03 603.893C1204.54 603.516 1204.45 602.81 1204.83 602.345C1205.23 601.856 1205.91 601.767 1206.4 602.168C1206.87 602.544 1206.95 603.228 1206.58 603.718C1206.36 603.981 1206.02 604.136 1205.71 604.136C1205.47 604.139 1205.23 604.05 1205.03 603.893ZM1215.44 589.524C1214.93 589.17 1214.77 588.481 1215.13 587.974H1215.1C1215.46 587.465 1216.14 587.332 1216.65 587.664C1217.16 587.994 1217.3 588.683 1216.96 589.19C1216.74 589.522 1216.41 589.699 1216.03 589.699C1215.83 589.701 1215.61 589.635 1215.44 589.524ZM1224.87 574.465C1224.36 574.155 1224.18 573.47 1224.49 572.959C1224.8 572.428 1225.49 572.25 1226.02 572.583C1226.55 572.893 1226.71 573.557 1226.4 574.088C1226.2 574.443 1225.82 574.62 1225.44 574.62C1225.24 574.622 1225.05 574.578 1224.87 574.465ZM1234.04 559.255C1233.5 558.942 1233.35 558.258 1233.66 557.727C1233.99 557.22 1234.68 557.04 1235.19 557.373C1235.72 557.685 1235.87 558.369 1235.56 558.9C1235.34 559.233 1234.99 559.407 1234.61 559.407C1234.41 559.407 1234.21 559.365 1234.04 559.255ZM1466.89 552.235C1466.27 552.258 1465.76 551.768 1465.74 551.173C1465.72 550.553 1466.18 550.043 1466.8 550.021C1467.42 549.997 1467.93 550.462 1467.95 551.082C1467.98 551.682 1467.51 552.211 1466.89 552.235ZM1448.98 551.104C1448.38 551.015 1447.96 550.44 1448.07 549.844C1448.16 549.244 1448.71 548.825 1449.33 548.914C1449.93 549.025 1450.35 549.578 1450.24 550.196C1450.17 550.727 1449.69 551.128 1449.15 551.128C1449.09 551.128 1449.04 551.128 1448.98 551.104ZM1483.23 548.447C1483.03 547.871 1483.37 547.253 1483.94 547.052C1484.52 546.875 1485.16 547.185 1485.34 547.76C1485.54 548.36 1485.2 548.978 1484.63 549.155C1484.52 549.202 1484.41 549.222 1484.3 549.222C1483.83 549.224 1483.39 548.914 1483.23 548.447ZM1431.55 547.076C1430.95 546.899 1430.62 546.279 1430.82 545.703C1430.97 545.103 1431.59 544.773 1432.19 544.95C1432.77 545.125 1433.1 545.745 1432.92 546.321C1432.79 546.81 1432.35 547.118 1431.86 547.118C1431.77 547.12 1431.66 547.098 1431.55 547.076ZM1243.73 544.372C1243.25 544.018 1243.14 543.332 1243.49 542.847V542.825C1243.84 542.335 1244.53 542.225 1245.02 542.581C1245.53 542.935 1245.64 543.622 1245.28 544.131C1245.28 544.131 1245.28 544.131 1245.28 544.107C1245.06 544.419 1244.73 544.572 1244.38 544.572C1244.15 544.572 1243.93 544.507 1243.73 544.372ZM1414.74 540.942C1414.19 540.699 1413.92 540.059 1414.17 539.481C1414.41 538.927 1415.05 538.662 1415.63 538.905C1416.18 539.149 1416.45 539.791 1416.21 540.345C1416.03 540.785 1415.63 541.031 1415.19 541.031C1415.05 541.031 1414.9 541.009 1414.74 540.942ZM1499.04 540.566C1498.67 540.079 1498.75 539.392 1499.24 539.016C1499.73 538.64 1500.42 538.728 1500.79 539.215C1501.17 539.705 1501.08 540.389 1500.59 540.765C1500.39 540.92 1500.17 540.989 1499.93 540.989C1499.6 540.987 1499.26 540.854 1499.04 540.566ZM1398.67 533.192C1398.14 532.882 1397.94 532.22 1398.23 531.687C1398.51 531.133 1399.18 530.934 1399.73 531.222L1399.71 531.244C1400.26 531.532 1400.46 532.196 1400.17 532.727C1399.97 533.104 1399.6 533.303 1399.2 533.303C1399.02 533.301 1398.85 533.281 1398.67 533.192ZM1254.65 530.356C1254.19 529.957 1254.14 529.273 1254.54 528.808C1254.96 528.343 1255.65 528.299 1256.11 528.695C1256.58 529.116 1256.6 529.827 1256.2 530.267C1255.98 530.511 1255.69 530.646 1255.38 530.646C1255.12 530.646 1254.85 530.557 1254.65 530.356ZM1511.27 527.812C1510.73 527.48 1510.6 526.793 1510.93 526.284C1511.27 525.752 1511.95 525.62 1512.46 525.954C1512.97 526.284 1513.13 526.972 1512.79 527.48C1512.57 527.812 1512.22 527.989 1511.86 527.989C1511.64 527.989 1511.44 527.922 1511.27 527.812ZM1383.06 524.712C1383.06 524.712 1383.06 524.712 1383.06 524.734C1382.53 524.424 1382.3 523.762 1382.61 523.228C1382.9 522.674 1383.57 522.475 1384.1 522.785C1384.65 523.073 1384.85 523.74 1384.56 524.269C1384.34 524.645 1383.97 524.847 1383.59 524.847C1383.41 524.844 1383.21 524.82 1383.06 524.712ZM1267.23 517.869C1266.83 517.382 1266.92 516.696 1267.38 516.297C1267.85 515.921 1268.56 515.987 1268.93 516.452C1269.33 516.917 1269.26 517.624 1268.78 518.024C1268.58 518.177 1268.33 518.266 1268.07 518.266C1267.76 518.268 1267.45 518.135 1267.23 517.869ZM1367.31 516.563C1366.78 516.297 1366.54 515.633 1366.83 515.079C1367.09 514.526 1367.76 514.302 1368.29 514.57H1368.31C1368.84 514.836 1369.09 515.5 1368.8 516.054C1368.62 516.455 1368.22 516.674 1367.8 516.674C1367.65 516.674 1367.49 516.652 1367.31 516.563ZM1518.9 511.869C1518.33 511.692 1518 511.072 1518.2 510.474C1518.37 509.898 1518.99 509.566 1519.57 509.765C1520.17 509.942 1520.48 510.562 1520.3 511.138C1520.14 511.625 1519.7 511.913 1519.24 511.913C1519.13 511.911 1519.02 511.891 1518.9 511.869ZM1351.19 509.344C1350.62 509.121 1350.35 508.479 1350.57 507.905C1350.8 507.329 1351.44 507.064 1352.01 507.285C1352.59 507.509 1352.85 508.151 1352.63 508.724C1352.46 509.167 1352.04 509.433 1351.61 509.433C1351.46 509.433 1351.33 509.411 1351.19 509.344ZM1281.86 507.883C1281.6 507.352 1281.82 506.687 1282.35 506.399C1282.9 506.134 1283.57 506.353 1283.86 506.887C1284.12 507.44 1283.9 508.104 1283.35 508.37C1283.19 508.459 1283.04 508.505 1282.86 508.505C1282.46 508.503 1282.06 508.282 1281.86 507.883ZM1334.45 503.875C1333.88 503.742 1333.52 503.144 1333.66 502.547C1333.81 501.946 1334.41 501.594 1335.01 501.749V501.727C1335.58 501.882 1335.96 502.48 1335.8 503.078C1335.69 503.585 1335.23 503.919 1334.74 503.919C1334.65 503.919 1334.54 503.897 1334.45 503.875ZM1298.47 501.727C1298.34 501.129 1298.71 500.532 1299.33 500.421H1299.31C1299.93 500.286 1300.51 500.664 1300.64 501.284C1300.75 501.862 1300.38 502.458 1299.78 502.591C1299.69 502.591 1299.62 502.615 1299.56 502.615C1299.05 502.613 1298.58 502.259 1298.47 501.727ZM1317.16 501.262C1316.54 501.218 1316.08 500.709 1316.1 500.089C1316.12 499.493 1316.65 499.006 1317.27 499.048C1317.87 499.07 1318.33 499.579 1318.31 500.202C1318.29 500.799 1317.8 501.262 1317.2 501.262C1317.18 501.262 1317.18 501.262 1317.16 501.262ZM1522.93 494.597C1522.31 494.486 1521.92 493.933 1522 493.335C1522.09 492.715 1522.67 492.316 1523.27 492.405C1523.86 492.494 1524.29 493.047 1524.2 493.667C1524.11 494.196 1523.64 494.597 1523.09 494.597C1523.05 494.597 1522.98 494.597 1522.93 494.597ZM1525.02 476.949C1524.42 476.903 1523.98 476.349 1524.02 475.754C1524.09 475.134 1524.62 474.691 1525.24 474.757C1525.84 474.801 1526.28 475.333 1526.23 475.953C1526.17 476.529 1525.68 476.949 1525.13 476.949C1525.08 476.949 1525.06 476.949 1525.02 476.949ZM1526.7 459.257C1526.08 459.191 1525.64 458.637 1525.7 458.039C1525.77 457.419 1526.32 456.976 1526.94 457.065C1527.54 457.109 1527.98 457.663 1527.92 458.283C1527.85 458.836 1527.36 459.257 1526.81 459.257C1526.77 459.257 1526.72 459.257 1526.7 459.257ZM1529.27 441.695C1528.65 441.563 1528.27 440.967 1528.4 440.367C1528.54 439.791 1529.11 439.393 1529.71 439.525C1530.31 439.658 1530.71 440.234 1530.57 440.832C1530.46 441.363 1530 441.718 1529.49 441.718C1529.4 441.72 1529.33 441.695 1529.27 441.695ZM1534.18 424.648C1533.61 424.424 1533.34 423.782 1533.59 423.208C1533.81 422.655 1534.47 422.367 1535.02 422.61C1535.6 422.852 1535.87 423.494 1535.62 424.07C1535.45 424.49 1535.02 424.736 1534.6 424.736C1534.45 424.736 1534.32 424.712 1534.18 424.648ZM1542.82 409.236C1542.35 408.86 1542.27 408.151 1542.64 407.686C1543.04 407.199 1543.73 407.11 1544.21 407.509C1544.68 407.885 1544.77 408.57 1544.39 409.059C1544.17 409.325 1543.84 409.48 1543.53 409.48C1543.28 409.48 1543.04 409.391 1542.82 409.236ZM1745.38 407.442C1745.38 407.442 1745.38 407.442 1745.38 407.42C1744.79 407.398 1744.32 406.867 1744.34 406.267C1744.39 405.649 1744.9 405.184 1745.52 405.226C1746.11 405.248 1746.58 405.78 1746.56 406.38C1746.51 406.975 1746.03 407.44 1745.45 407.44C1745.43 407.442 1745.41 407.442 1745.38 407.442ZM1762.1 406.267C1762.03 405.669 1762.5 405.137 1763.12 405.095C1763.72 405.049 1764.25 405.494 1764.29 406.114C1764.34 406.712 1763.89 407.243 1763.27 407.285C1763.25 407.285 1763.21 407.285 1763.19 407.285C1762.61 407.285 1762.12 406.867 1762.1 406.267ZM1727.62 405.494C1727.03 405.383 1726.61 404.83 1726.72 404.232C1726.81 403.614 1727.38 403.213 1727.98 403.302C1728.58 403.39 1729 403.966 1728.89 404.564C1728.82 405.117 1728.33 405.494 1727.8 405.494C1727.74 405.494 1727.69 405.494 1727.62 405.494ZM1779.64 403.7C1779.48 403.1 1779.86 402.505 1780.46 402.35C1781.03 402.195 1781.63 402.571 1781.79 403.147C1781.94 403.745 1781.56 404.342 1780.99 404.495C1780.9 404.517 1780.81 404.542 1780.72 404.542C1780.21 404.542 1779.77 404.187 1779.64 403.7ZM1710.15 401.927C1709.56 401.774 1709.18 401.174 1709.33 400.598C1709.47 400.002 1710.07 399.624 1710.66 399.779C1711.26 399.914 1711.64 400.509 1711.48 401.11C1711.35 401.617 1710.91 401.951 1710.4 401.951C1710.33 401.951 1710.24 401.951 1710.15 401.927ZM1796.4 397.899C1796.13 397.345 1796.36 396.681 1796.91 396.415C1797.44 396.15 1798.11 396.369 1798.37 396.922C1798.66 397.476 1798.42 398.14 1797.88 398.406C1797.71 398.472 1797.55 398.517 1797.4 398.517C1796.98 398.517 1796.58 398.297 1796.4 397.899ZM1692.95 397.39C1692.95 397.39 1692.95 397.39 1692.95 397.367C1692.35 397.212 1692.02 396.592 1692.17 396.017C1692.35 395.419 1692.95 395.087 1693.55 395.242C1694.12 395.419 1694.48 396.017 1694.3 396.615C1694.17 397.102 1693.72 397.409 1693.24 397.409C1693.13 397.409 1693.04 397.409 1692.95 397.39ZM1555.46 396.836C1555.11 396.349 1555.22 395.64 1555.73 395.286H1555.71C1556.22 394.934 1556.9 395.045 1557.26 395.552C1557.61 396.041 1557.5 396.725 1557.01 397.08C1557.01 397.08 1557.01 397.08 1557.01 397.102C1556.81 397.237 1556.59 397.301 1556.37 397.301C1556.02 397.301 1555.68 397.146 1555.46 396.836ZM1675.85 392.474C1675.28 392.319 1674.92 391.699 1675.1 391.101C1675.28 390.525 1675.88 390.171 1676.47 390.348C1677.07 390.525 1677.4 391.123 1677.23 391.721C1677.09 392.208 1676.65 392.516 1676.16 392.516C1676.08 392.516 1675.96 392.516 1675.85 392.474ZM1811.39 388.464C1810.99 388.023 1811.04 387.312 1811.5 386.916C1811.94 386.515 1812.65 386.562 1813.05 387.004C1813.45 387.469 1813.41 388.176 1812.96 388.577C1812.74 388.754 1812.48 388.842 1812.23 388.842C1811.92 388.842 1811.61 388.729 1811.39 388.464ZM1570.85 388.023C1570.61 387.469 1570.87 386.827 1571.43 386.584C1572 386.34 1572.65 386.606 1572.89 387.184C1573.11 387.737 1572.87 388.402 1572.29 388.621C1572.16 388.687 1572 388.709 1571.87 388.709C1571.43 388.709 1571.03 388.464 1570.85 388.023ZM1658.76 387.802C1658.16 387.649 1657.81 387.049 1657.96 386.453C1658.12 385.853 1658.72 385.499 1659.31 385.656C1659.91 385.811 1660.27 386.409 1660.11 387.007C1659.98 387.514 1659.53 387.848 1659.05 387.848C1658.94 387.846 1658.85 387.824 1658.76 387.802ZM1641.51 383.927C1640.91 383.816 1640.51 383.24 1640.62 382.62C1640.74 382.044 1641.31 381.648 1641.91 381.757C1642.53 381.867 1642.91 382.443 1642.79 383.041C1642.71 383.57 1642.24 383.949 1641.71 383.949C1641.64 383.949 1641.58 383.949 1641.51 383.927ZM1587.73 382.598C1587.59 382 1587.97 381.402 1588.57 381.267H1588.59C1589.16 381.137 1589.76 381.533 1589.9 382.133C1590.03 382.731 1589.63 383.307 1589.03 383.439C1588.97 383.462 1588.9 383.462 1588.81 383.462C1588.3 383.462 1587.84 383.105 1587.73 382.598ZM1624.04 381.444C1623.44 381.4 1622.98 380.847 1623.04 380.249C1623.09 379.631 1623.64 379.188 1624.24 379.254C1624.86 379.297 1625.3 379.83 1625.24 380.45C1625.19 381.026 1624.7 381.444 1624.15 381.444C1624.11 381.444 1624.08 381.444 1624.04 381.444ZM1605.28 380.096C1605.26 379.476 1605.73 378.967 1606.35 378.922C1606.95 378.9 1607.48 379.365 1607.5 379.963C1607.54 380.583 1607.08 381.095 1606.46 381.137C1606.44 381.137 1606.44 381.137 1606.41 381.137C1605.82 381.137 1605.33 380.694 1605.28 380.096ZM1822.97 375.092C1822.44 374.779 1822.29 374.095 1822.62 373.584C1822.93 373.052 1823.61 372.877 1824.12 373.207C1824.66 373.517 1824.81 374.204 1824.5 374.735C1824.28 375.065 1823.92 375.264 1823.55 375.264C1823.35 375.266 1823.15 375.202 1822.97 375.092ZM1830.32 358.994C1829.75 358.816 1829.39 358.219 1829.57 357.621C1829.73 357.045 1830.35 356.691 1830.92 356.868C1831.52 357.023 1831.87 357.643 1831.7 358.219C1831.56 358.706 1831.12 359.038 1830.63 359.038C1830.52 359.038 1830.43 359.014 1830.32 358.994ZM1831.79 340.416C1831.76 339.796 1832.25 339.284 1832.87 339.264C1833.47 339.264 1833.98 339.729 1834 340.349C1834.02 340.969 1833.53 341.479 1832.91 341.479C1832.91 341.479 1832.91 341.479 1832.89 341.479C1832.29 341.479 1831.81 341.014 1831.79 340.416ZM1828.22 323.543C1827.98 322.989 1828.24 322.325 1828.8 322.103C1829.37 321.838 1830.01 322.103 1830.26 322.679C1830.5 323.233 1830.23 323.875 1829.68 324.118C1829.55 324.185 1829.39 324.207 1829.24 324.207C1828.82 324.207 1828.4 323.963 1828.22 323.543Z" fill="white"/>
<path d="M426.106 1448.66C425.486 1448.66 424.998 1448.15 424.998 1447.55C424.998 1446.94 425.508 1446.45 426.106 1446.45C426.726 1446.45 427.213 1446.96 427.213 1447.55C427.213 1448.18 426.703 1448.66 426.106 1448.66ZM442.58 1445.54C442.425 1444.94 442.779 1444.35 443.355 1444.19C443.953 1444.01 444.551 1444.37 444.728 1444.97C444.883 1445.54 444.551 1446.16 443.953 1446.32C443.842 1446.34 443.754 1446.36 443.665 1446.36C443.178 1446.36 442.735 1446.03 442.58 1445.54ZM408.28 1445.94C407.705 1445.76 407.373 1445.14 407.55 1444.54C407.749 1443.97 408.369 1443.64 408.945 1443.84C409.52 1444.01 409.853 1444.63 409.675 1445.21C409.52 1445.7 409.078 1445.98 408.613 1445.98C408.502 1445.98 408.391 1445.96 408.28 1445.94ZM458.899 1438.7C458.567 1438.17 458.722 1437.48 459.254 1437.17C459.763 1436.84 460.449 1436.99 460.781 1437.5C461.091 1438.03 460.936 1438.7 460.427 1439.03C460.25 1439.14 460.051 1439.21 459.829 1439.21C459.475 1439.21 459.121 1439.03 458.899 1438.7ZM392.382 1437.33C391.917 1436.92 391.873 1436.22 392.271 1435.75C392.67 1435.29 393.356 1435.24 393.821 1435.64C394.286 1436.02 394.33 1436.73 393.954 1437.19C393.733 1437.46 393.423 1437.59 393.09 1437.59C392.847 1437.59 392.581 1437.5 392.382 1437.33ZM472.982 1427.94C472.562 1427.49 472.584 1426.78 473.027 1426.36C473.469 1425.94 474.178 1425.96 474.599 1426.41C475.019 1426.85 474.997 1427.56 474.554 1427.98C474.333 1428.18 474.067 1428.29 473.802 1428.29C473.492 1428.29 473.204 1428.16 472.982 1427.94ZM485.028 1414.89C484.541 1414.52 484.452 1413.81 484.829 1413.34C485.227 1412.86 485.914 1412.77 486.401 1413.17C486.866 1413.54 486.954 1414.23 486.578 1414.72C486.357 1414.98 486.024 1415.14 485.714 1415.14C485.471 1415.14 485.227 1415.05 485.028 1414.89ZM495.435 1400.52C494.926 1400.17 494.771 1399.48 495.125 1398.97H495.103C495.457 1398.46 496.144 1398.33 496.653 1398.66C497.162 1398.99 497.295 1399.68 496.963 1400.19C496.742 1400.52 496.41 1400.7 496.033 1400.7C495.834 1400.7 495.612 1400.63 495.435 1400.52ZM504.868 1385.46C504.359 1385.15 504.182 1384.47 504.492 1383.96C504.802 1383.43 505.488 1383.25 506.02 1383.58C506.551 1383.89 506.706 1384.56 506.396 1385.09C506.197 1385.44 505.82 1385.62 505.444 1385.62C505.245 1385.62 505.045 1385.58 504.868 1385.46ZM514.035 1370.25C513.504 1369.94 513.349 1369.26 513.659 1368.73C513.991 1368.22 514.677 1368.04 515.187 1368.37C515.718 1368.68 515.873 1369.37 515.563 1369.9C515.342 1370.23 514.987 1370.41 514.611 1370.41C514.412 1370.41 514.212 1370.37 514.035 1370.25ZM746.891 1363.24C746.271 1363.26 745.762 1362.77 745.739 1362.17C745.717 1361.55 746.182 1361.04 746.802 1361.02C747.422 1361 747.932 1361.46 747.954 1362.08C747.976 1362.68 747.511 1363.21 746.891 1363.24ZM728.977 1362.1C728.379 1362.02 727.959 1361.44 728.069 1360.84C728.158 1360.24 728.711 1359.83 729.331 1359.91C729.929 1360.02 730.35 1360.58 730.239 1361.2C730.173 1361.73 729.686 1362.13 729.154 1362.13C729.088 1362.13 729.044 1362.13 728.977 1362.1ZM763.232 1359.45C763.033 1358.87 763.365 1358.25 763.941 1358.05C764.517 1357.87 765.159 1358.18 765.336 1358.76C765.535 1359.36 765.203 1359.98 764.627 1360.16C764.517 1360.2 764.406 1360.22 764.295 1360.22C763.83 1360.22 763.387 1359.91 763.232 1359.45ZM711.551 1358.08C710.953 1357.9 710.621 1357.28 710.82 1356.7C710.975 1356.1 711.595 1355.77 712.193 1355.95C712.769 1356.13 713.101 1356.75 712.924 1357.32C712.791 1357.81 712.348 1358.12 711.861 1358.12C711.772 1358.12 711.661 1358.1 711.551 1358.08ZM523.734 1355.37C523.247 1355.02 523.136 1354.33 523.49 1353.85V1353.82C523.845 1353.34 524.531 1353.22 525.018 1353.58C525.528 1353.94 525.638 1354.62 525.284 1355.13C525.284 1355.13 525.284 1355.13 525.284 1355.11C525.063 1355.42 524.73 1355.57 524.376 1355.57C524.155 1355.57 523.933 1355.51 523.734 1355.37ZM694.744 1351.94C694.191 1351.7 693.925 1351.06 694.168 1350.48C694.412 1349.93 695.054 1349.66 695.63 1349.91C696.183 1350.15 696.449 1350.79 696.206 1351.34C696.028 1351.79 695.63 1352.03 695.187 1352.03C695.054 1352.03 694.899 1352.01 694.744 1351.94ZM779.042 1351.57C778.666 1351.08 778.755 1350.39 779.242 1350.02C779.729 1349.64 780.415 1349.73 780.792 1350.22C781.168 1350.7 781.08 1351.39 780.592 1351.77C780.393 1351.92 780.172 1351.99 779.928 1351.99C779.596 1351.99 779.264 1351.85 779.042 1351.57ZM678.668 1344.19C678.137 1343.88 677.938 1343.22 678.226 1342.69C678.513 1342.13 679.178 1341.93 679.731 1342.22L679.709 1342.24C680.263 1342.53 680.462 1343.2 680.174 1343.73C679.975 1344.1 679.598 1344.3 679.2 1344.3C679.023 1344.3 678.846 1344.28 678.668 1344.19ZM534.65 1341.36C534.185 1340.96 534.141 1340.27 534.54 1339.81C534.96 1339.34 535.647 1339.3 536.112 1339.7C536.577 1340.12 536.599 1340.83 536.2 1341.27C535.979 1341.51 535.691 1341.65 535.381 1341.65C535.115 1341.65 534.85 1341.56 534.65 1341.36ZM791.265 1338.81C790.734 1338.48 790.601 1337.79 790.933 1337.28C791.265 1336.75 791.952 1336.62 792.461 1336.95C792.97 1337.28 793.125 1337.97 792.793 1338.48C792.572 1338.81 792.218 1338.99 791.863 1338.99C791.642 1338.99 791.443 1338.92 791.265 1338.81ZM663.058 1335.71C663.058 1335.71 663.058 1335.71 663.058 1335.73C662.526 1335.42 662.305 1334.76 662.615 1334.23C662.903 1333.67 663.567 1333.48 664.098 1333.79C664.652 1334.07 664.851 1334.74 664.563 1335.27C664.342 1335.65 663.965 1335.85 663.589 1335.85C663.412 1335.84 663.213 1335.82 663.058 1335.71ZM547.228 1328.87C546.829 1328.38 546.918 1327.7 547.383 1327.3C547.848 1326.92 548.556 1326.99 548.933 1327.45C549.331 1327.92 549.265 1328.62 548.778 1329.02C548.578 1329.18 548.335 1329.27 548.069 1329.27C547.759 1329.27 547.449 1329.14 547.228 1328.87ZM647.314 1327.56C646.782 1327.3 646.539 1326.63 646.827 1326.08C647.092 1325.53 647.757 1325.3 648.288 1325.57H648.31C648.842 1325.84 649.085 1326.5 648.797 1327.05C648.62 1327.45 648.222 1327.67 647.801 1327.67C647.646 1327.67 647.491 1327.65 647.314 1327.56ZM798.905 1322.87C798.329 1322.69 797.997 1322.07 798.196 1321.47C798.371 1320.9 798.993 1320.57 799.569 1320.77C800.167 1320.94 800.477 1321.56 800.3 1322.14C800.145 1322.63 799.702 1322.91 799.237 1322.91C799.126 1322.91 799.015 1322.89 798.905 1322.87ZM631.194 1320.34C630.618 1320.12 630.352 1319.48 630.574 1318.91C630.795 1318.33 631.437 1318.06 632.013 1318.29C632.589 1318.51 632.855 1319.15 632.633 1319.72C632.456 1320.17 632.035 1320.43 631.615 1320.43C631.46 1320.43 631.327 1320.41 631.194 1320.34ZM561.864 1318.88C561.598 1318.35 561.82 1317.69 562.351 1317.4C562.905 1317.13 563.569 1317.35 563.857 1317.89C564.123 1318.44 563.901 1319.1 563.348 1319.37C563.193 1319.46 563.038 1319.51 562.861 1319.51C562.462 1319.5 562.063 1319.28 561.864 1318.88ZM614.454 1314.88C613.878 1314.74 613.524 1314.14 613.657 1313.55C613.812 1312.95 614.409 1312.59 615.007 1312.75V1312.73C615.583 1312.88 615.959 1313.48 615.804 1314.08C615.694 1314.59 615.229 1314.92 614.742 1314.92C614.653 1314.92 614.542 1314.9 614.454 1314.88ZM578.471 1312.73C578.339 1312.13 578.715 1311.53 579.335 1311.42H579.313C579.933 1311.29 580.509 1311.66 580.641 1312.28C580.752 1312.86 580.376 1313.46 579.778 1313.59C579.689 1313.59 579.623 1313.62 579.556 1313.62C579.047 1313.61 578.582 1313.26 578.471 1312.73ZM597.16 1312.26C596.54 1312.22 596.075 1311.71 596.097 1311.09C596.119 1310.49 596.651 1310.01 597.271 1310.05C597.869 1310.07 598.334 1310.58 598.311 1311.2C598.289 1311.8 597.802 1312.26 597.204 1312.26C597.182 1312.26 597.182 1312.26 597.16 1312.26ZM802.935 1305.6C802.315 1305.49 801.916 1304.93 802.005 1304.34C802.093 1303.72 802.669 1303.32 803.267 1303.41C803.865 1303.49 804.285 1304.05 804.197 1304.67C804.108 1305.2 803.643 1305.6 803.09 1305.6C803.045 1305.6 802.979 1305.6 802.935 1305.6ZM805.016 1287.95C804.418 1287.9 803.975 1287.35 804.02 1286.75C804.086 1286.13 804.618 1285.69 805.238 1285.76C805.835 1285.8 806.278 1286.33 806.234 1286.95C806.168 1287.53 805.681 1287.95 805.127 1287.95C805.083 1287.95 805.06 1287.95 805.016 1287.95ZM806.699 1270.26C806.079 1270.19 805.636 1269.64 805.703 1269.04C805.769 1268.42 806.323 1267.98 806.943 1268.06C807.54 1268.11 807.983 1268.66 807.917 1269.28C807.85 1269.84 807.363 1270.26 806.81 1270.26C806.766 1270.26 806.721 1270.26 806.699 1270.26ZM809.268 1252.7C808.648 1252.56 808.271 1251.97 808.404 1251.37C808.537 1250.79 809.113 1250.39 809.711 1250.53C810.308 1250.66 810.707 1251.23 810.574 1251.83C810.463 1252.36 809.998 1252.72 809.489 1252.72C809.4 1252.72 809.334 1252.7 809.268 1252.7ZM814.183 1235.65C813.608 1235.42 813.342 1234.78 813.586 1234.21C813.807 1233.65 814.471 1233.37 815.025 1233.61C815.601 1233.85 815.866 1234.49 815.623 1235.07C815.446 1235.49 815.025 1235.74 814.604 1235.74C814.449 1235.74 814.316 1235.71 814.183 1235.65ZM822.819 1220.24C822.354 1219.86 822.266 1219.15 822.642 1218.69C823.041 1218.2 823.727 1218.11 824.214 1218.51C824.679 1218.89 824.768 1219.57 824.389 1220.06C824.168 1220.32 823.836 1220.48 823.526 1220.48C823.284 1220.48 823.041 1220.39 822.819 1220.24ZM1025.38 1218.44C1025.38 1218.44 1025.38 1218.44 1025.38 1218.42C1024.79 1218.4 1024.32 1217.87 1024.34 1217.27C1024.39 1216.65 1024.9 1216.18 1025.52 1216.23C1026.11 1216.25 1026.58 1216.78 1026.56 1217.38C1026.51 1217.98 1026.03 1218.44 1025.45 1218.44C1025.43 1218.44 1025.41 1218.44 1025.38 1218.44ZM1042.1 1217.27C1042.03 1216.67 1042.5 1216.14 1043.12 1216.1C1043.72 1216.05 1044.25 1216.49 1044.29 1217.11C1044.34 1217.71 1043.89 1218.24 1043.27 1218.29C1043.25 1218.29 1043.21 1218.29 1043.19 1218.29C1042.61 1218.29 1042.12 1217.87 1042.1 1217.27ZM1007.62 1216.49C1007.03 1216.38 1006.61 1215.83 1006.72 1215.23C1006.81 1214.61 1007.38 1214.21 1007.98 1214.3C1008.58 1214.39 1009 1214.97 1008.89 1215.56C1008.82 1216.12 1008.33 1216.49 1007.8 1216.49C1007.74 1216.49 1007.69 1216.49 1007.62 1216.49ZM1059.64 1214.7C1059.48 1214.1 1059.86 1213.5 1060.46 1213.35C1061.03 1213.19 1061.63 1213.57 1061.79 1214.15C1061.94 1214.74 1061.56 1215.34 1060.99 1215.5C1060.9 1215.52 1060.81 1215.54 1060.72 1215.54C1060.21 1215.54 1059.77 1215.19 1059.64 1214.7ZM990.154 1212.93C989.556 1212.77 989.179 1212.17 989.334 1211.6C989.467 1211 990.065 1210.62 990.663 1210.78C991.261 1210.91 991.637 1211.51 991.482 1212.11C991.349 1212.62 990.906 1212.95 990.397 1212.95C990.331 1212.95 990.242 1212.95 990.154 1212.93ZM1076.4 1208.9C1076.13 1208.35 1076.36 1207.68 1076.91 1207.42C1077.44 1207.15 1078.11 1207.37 1078.37 1207.92C1078.66 1208.48 1078.42 1209.14 1077.88 1209.41C1077.71 1209.47 1077.55 1209.52 1077.4 1209.52C1076.98 1209.52 1076.58 1209.3 1076.4 1208.9ZM972.949 1208.39C972.949 1208.39 972.949 1208.39 972.949 1208.37C972.351 1208.21 972.018 1207.59 972.174 1207.02C972.351 1206.42 972.949 1206.09 973.546 1206.24C974.122 1206.42 974.476 1207.02 974.299 1207.61C974.166 1208.1 973.724 1208.41 973.236 1208.41C973.126 1208.41 973.037 1208.41 972.949 1208.39ZM835.463 1207.84C835.109 1207.35 835.219 1206.64 835.729 1206.29H835.706C836.216 1205.93 836.902 1206.04 837.256 1206.55C837.611 1207.04 837.5 1207.73 837.013 1208.08C837.013 1208.08 837.013 1208.08 837.013 1208.1C836.814 1208.24 836.592 1208.3 836.371 1208.3C836.016 1208.3 835.684 1208.15 835.463 1207.84ZM955.854 1203.47C955.278 1203.32 954.924 1202.7 955.101 1202.1C955.278 1201.53 955.876 1201.17 956.474 1201.35C957.072 1201.53 957.404 1202.12 957.227 1202.72C957.094 1203.21 956.651 1203.52 956.164 1203.52C956.076 1203.52 955.965 1203.52 955.854 1203.47ZM1091.39 1199.46C1090.99 1199.02 1091.04 1198.31 1091.5 1197.92C1091.94 1197.52 1092.65 1197.56 1093.05 1198C1093.45 1198.47 1093.41 1199.18 1092.96 1199.58C1092.74 1199.75 1092.48 1199.84 1092.23 1199.84C1091.92 1199.84 1091.61 1199.73 1091.39 1199.46ZM850.852 1199.02C850.609 1198.47 850.874 1197.83 851.428 1197.58C852.004 1197.34 852.646 1197.61 852.889 1198.18C853.111 1198.74 852.867 1199.4 852.291 1199.62C852.159 1199.69 852.004 1199.71 851.871 1199.71C851.428 1199.71 851.029 1199.46 850.852 1199.02ZM938.76 1198.8C938.162 1198.65 937.808 1198.05 937.963 1197.45C938.118 1196.85 938.716 1196.5 939.313 1196.66C939.911 1196.81 940.266 1197.41 940.11 1198.01C939.978 1198.51 939.535 1198.85 939.048 1198.85C938.937 1198.85 938.848 1198.82 938.76 1198.8ZM921.51 1194.93C920.913 1194.82 920.514 1194.24 920.625 1193.62C920.735 1193.04 921.311 1192.65 921.909 1192.76C922.529 1192.87 922.905 1193.44 922.795 1194.04C922.706 1194.57 922.241 1194.95 921.71 1194.95C921.643 1194.95 921.577 1194.95 921.51 1194.93ZM867.725 1193.6C867.592 1193 867.969 1192.4 868.567 1192.27H868.589C869.164 1192.14 869.762 1192.53 869.895 1193.13C870.028 1193.73 869.629 1194.31 869.032 1194.44C868.965 1194.46 868.899 1194.46 868.81 1194.46C868.301 1194.46 867.836 1194.11 867.725 1193.6ZM904.04 1192.44C903.442 1192.4 902.977 1191.85 903.043 1191.25C903.087 1190.63 903.641 1190.19 904.239 1190.25C904.859 1190.3 905.302 1190.83 905.235 1191.45C905.191 1192.03 904.704 1192.44 904.15 1192.44C904.106 1192.44 904.084 1192.44 904.04 1192.44ZM885.284 1191.1C885.262 1190.48 885.727 1189.97 886.347 1189.92C886.945 1189.9 887.477 1190.37 887.499 1190.96C887.543 1191.58 887.078 1192.09 886.458 1192.14C886.436 1192.14 886.436 1192.14 886.414 1192.14C885.816 1192.14 885.329 1191.69 885.284 1191.1ZM1102.97 1186.09C1102.44 1185.78 1102.29 1185.1 1102.62 1184.58C1102.93 1184.05 1103.61 1183.88 1104.12 1184.21C1104.66 1184.52 1104.81 1185.2 1104.5 1185.74C1104.28 1186.06 1103.92 1186.26 1103.55 1186.26C1103.35 1186.27 1103.15 1186.2 1102.97 1186.09ZM1110.32 1169.99C1109.75 1169.82 1109.39 1169.22 1109.57 1168.62C1109.73 1168.05 1110.35 1167.69 1110.92 1167.87C1111.52 1168.02 1111.87 1168.64 1111.7 1169.22C1111.56 1169.71 1111.12 1170.04 1110.63 1170.04C1110.52 1170.04 1110.43 1170.01 1110.32 1169.99ZM1111.79 1151.42C1111.76 1150.8 1112.25 1150.28 1112.87 1150.26C1113.47 1150.26 1113.98 1150.73 1114 1151.35C1114.02 1151.97 1113.53 1152.48 1112.91 1152.48C1112.91 1152.48 1112.91 1152.48 1112.89 1152.48C1112.29 1152.48 1111.81 1152.01 1111.79 1151.42ZM1108.22 1134.54C1107.98 1133.99 1108.24 1133.32 1108.8 1133.1C1109.37 1132.84 1110.01 1133.1 1110.26 1133.68C1110.5 1134.23 1110.23 1134.87 1109.68 1135.12C1109.55 1135.18 1109.39 1135.21 1109.24 1135.21C1108.82 1135.21 1108.4 1134.96 1108.22 1134.54Z" fill="white"/>
<defs>
<filter id="filter0_f_410_36" x="-366.344" y="0.266602" width="1088.22" height="1160.38" filterUnits="userSpaceOnUse" color-interpolation-filters="sRGB">
<feFlood flood-opacity="0" result="BackgroundImageFix"/>
<feBlend mode="normal" in="SourceGraphic" in2="BackgroundImageFix" result="shape"/>
<feGaussianBlur stdDeviation="150" result="effect1_foregroundBlur_410_36"/>
</filter>
<filter id="filter1_f_410_36" x="807.656" y="613.267" width="1088.22" height="1160.38" filterUnits="userSpaceOnUse" color-interpolation-filters="sRGB">
<feFlood flood-opacity="0" result="BackgroundImageFix"/>
<feBlend mode="normal" in="SourceGraphic" in2="BackgroundImageFix" result="shape"/>
<feGaussianBlur stdDeviation="150" result="effect1_foregroundBlur_410_36"/>
</filter>
<radialGradient id="paint0_radial_410_36" cx="0" cy="0" r="1" gradientUnits="userSpaceOnUse" gradientTransform="translate(113.025 537.622) rotate(73.0604) scale(251.144 224.064)">
<stop stop-color="#3A76D1"/>
<stop offset="1" stop-color="#4868D8" stop-opacity="0"/>
</radialGradient>
<radialGradient id="paint1_radial_410_36" cx="0" cy="0" r="1" gradientUnits="userSpaceOnUse" gradientTransform="translate(1287.02 1150.62) rotate(73.0604) scale(251.144 224.064)">
<stop stop-color="#3A76D1"/>
<stop offset="1" stop-color="#4868D8" stop-opacity="0"/>
</radialGradient>
</defs>
</svg>
