<svg width="1440" height="1133" viewBox="0 0 1440 1133" fill="none" xmlns="http://www.w3.org/2000/svg">
<path d="M-1 -0.00012207L1439 -0.000127077L1439 784L-0.999997 784L-1 -0.00012207Z" fill="url(#paint0_linear_189_451)"/>
<g opacity="0.5" filter="url(#filter0_f_189_451)">
<path d="M314.593 483.504C506.495 651.045 266.978 765.434 164.553 792.879C62.1274 820.323 -103.926 932.628 -92.5445 592.596C-108.446 411.542 -113.573 303.694 -11.1474 276.249C91.2781 248.805 159.954 368.095 314.593 483.504Z" fill="url(#paint1_radial_189_451)"/>
</g>
<g opacity="0.5" filter="url(#filter1_f_189_451)">
<path d="M1650.59 193.504C1842.49 361.045 1602.98 475.434 1500.55 502.879C1398.13 530.323 1232.07 642.628 1243.46 302.596C1227.55 121.542 1222.43 13.6943 1324.85 -13.7506C1427.28 -41.1954 1495.95 78.0947 1650.59 193.504Z" fill="url(#paint2_radial_189_451)"/>
</g>
<path d="M1447.93 537.31C1447.83 537.72 1447.39 537.96 1446.98 537.844C1446.57 537.729 1446.33 537.303 1446.44 536.894C1446.56 536.484 1446.98 536.243 1447.4 536.359C1447.76 536.454 1447.99 536.802 1447.96 537.172C1447.95 537.219 1447.95 537.265 1447.93 537.31ZM1436.4 533.11C1436.23 533.483 1435.76 533.658 1435.37 533.467C1434.98 533.291 1434.83 532.826 1435.02 532.439C1435.19 532.051 1435.66 531.891 1436.05 532.067C1436.34 532.219 1436.52 532.53 1436.49 532.838C1436.48 532.931 1436.46 533.022 1436.4 533.11ZM1425.76 527.018C1425.51 527.368 1425.03 527.448 1424.69 527.199C1424.34 526.965 1424.24 526.474 1424.49 526.124C1424.74 525.773 1425.22 525.692 1425.57 525.927C1425.8 526.104 1425.92 526.379 1425.89 526.641C1425.88 526.764 1425.84 526.9 1425.76 527.018ZM1416.21 519.314C1415.9 519.628 1415.42 519.63 1415.1 519.337C1414.8 519.045 1414.79 518.546 1415.08 518.246C1415.37 517.931 1415.87 517.914 1416.18 518.223L1416.17 518.222C1416.36 518.379 1416.43 518.619 1416.41 518.85C1416.39 519.02 1416.33 519.185 1416.21 519.314ZM1407.91 510.263C1407.56 510.527 1407.08 510.467 1406.82 510.132C1406.56 509.782 1406.61 509.305 1406.95 509.04C1407.3 508.777 1407.78 508.836 1408.04 509.172C1408.17 509.338 1408.23 509.531 1408.21 509.716C1408.19 509.931 1408.08 510.124 1407.91 510.263ZM1412.16 382.297C1411.74 382.29 1411.4 381.932 1411.41 381.513C1411.42 381.078 1411.78 380.738 1412.21 380.747C1412.63 380.77 1412.97 381.112 1412.96 381.547C1412.96 381.562 1412.96 381.578 1412.96 381.593C1412.92 381.994 1412.58 382.305 1412.16 382.297ZM1411.44 393.863C1411.36 394.276 1410.94 394.549 1410.53 394.449C1410.12 394.364 1409.85 393.966 1409.93 393.538C1410.02 393.126 1410.43 392.853 1410.86 392.939C1411.24 393.021 1411.5 393.387 1411.46 393.772C1411.46 393.803 1411.44 393.833 1411.44 393.863ZM1401.02 500.099C1400.66 500.299 1400.19 500.178 1399.98 499.8C1399.76 499.423 1399.9 498.954 1400.28 498.739C1400.65 498.541 1401.12 498.662 1401.32 499.038C1401.4 499.185 1401.43 499.343 1401.42 499.482C1401.4 499.729 1401.27 499.966 1401.02 500.099ZM1411.23 370.082C1410.82 370.169 1410.41 369.898 1410.32 369.486C1410.23 369.073 1410.49 368.662 1410.92 368.561C1411.33 368.474 1411.74 368.745 1411.83 369.158C1411.85 369.237 1411.86 369.316 1411.85 369.393C1411.82 369.732 1411.58 370.006 1411.23 370.082ZM1408.14 405.783C1407.99 406.19 1407.55 406.398 1407.15 406.267C1406.74 406.137 1406.53 405.698 1406.66 405.29C1406.79 404.882 1407.23 404.658 1407.64 404.804C1407.99 404.914 1408.2 405.26 1408.17 405.6C1408.17 405.661 1408.15 405.722 1408.14 405.783ZM1403.89 417.352C1403.73 417.741 1403.28 417.948 1402.89 417.788C1402.48 417.627 1402.29 417.189 1402.45 416.784C1402.59 416.393 1403.05 416.186 1403.45 416.347C1403.77 416.47 1403.97 416.799 1403.94 417.139C1403.93 417.216 1403.91 417.276 1403.89 417.352ZM1395.76 489.01C1395.35 489.159 1394.91 488.947 1394.76 488.56C1394.61 488.158 1394.82 487.71 1395.22 487.561C1395.61 487.41 1396.06 487.606 1396.21 488.009C1396.26 488.123 1396.26 488.247 1396.25 488.355C1396.23 488.633 1396.05 488.896 1395.76 489.01ZM1407.48 358.417C1407.09 358.599 1406.62 358.432 1406.44 358.042C1406.26 357.667 1406.43 357.202 1406.82 357.019C1407.21 356.837 1407.67 357.004 1407.85 357.394C1407.9 357.523 1407.92 357.665 1407.91 357.788C1407.89 358.05 1407.74 358.301 1407.48 358.417ZM1399.43 428.792C1399.27 429.197 1398.83 429.391 1398.43 429.244C1398.04 429.1 1397.83 428.645 1397.98 428.239C1398.14 427.849 1398.58 427.641 1398.98 427.802C1399.31 427.926 1399.51 428.256 1399.48 428.595C1399.48 428.656 1399.45 428.732 1399.43 428.792ZM1392.28 477.23C1391.87 477.316 1391.46 477.045 1391.37 476.618C1391.3 476.207 1391.57 475.796 1391.99 475.71C1392.41 475.64 1392.81 475.91 1392.89 476.322C1392.92 476.402 1392.92 476.48 1392.92 476.542C1392.89 476.881 1392.63 477.168 1392.28 477.23ZM1395.42 440.351C1395.29 440.759 1394.86 440.984 1394.45 440.869C1394.04 440.738 1393.8 440.312 1393.94 439.889C1394.07 439.481 1394.49 439.255 1394.9 439.386C1395.26 439.497 1395.48 439.844 1395.45 440.198C1395.44 440.245 1395.44 440.306 1395.42 440.351ZM1390.85 465.062C1390.43 465.07 1390.07 464.726 1390.06 464.29C1390.06 463.87 1390.4 463.512 1390.82 463.504C1391.26 463.497 1391.61 463.841 1391.62 464.262C1391.62 464.293 1391.62 464.324 1391.61 464.355C1391.58 464.74 1391.25 465.052 1390.85 465.062ZM1392.54 452.186C1392.47 452.599 1392.07 452.889 1391.65 452.819C1391.23 452.75 1390.94 452.335 1391.01 451.921C1391.08 451.507 1391.48 451.218 1391.91 451.288C1392.31 451.356 1392.59 451.723 1392.55 452.124C1392.55 452.14 1392.55 452.155 1392.54 452.186ZM1401.36 347.794C1401.01 348.042 1400.53 347.951 1400.29 347.618C1400.29 347.618 1400.29 347.618 1400.29 347.603C1400.03 347.252 1400.12 346.778 1400.47 346.531C1400.82 346.283 1401.3 346.357 1401.54 346.707C1401.65 346.872 1401.7 347.049 1401.68 347.232C1401.66 347.448 1401.55 347.656 1401.36 347.794ZM1393.64 338.253C1393.32 338.534 1392.84 338.521 1392.54 338.214C1392.24 337.891 1392.27 337.396 1392.58 337.113C1392.9 336.816 1393.38 336.845 1393.68 337.152C1393.83 337.322 1393.89 337.545 1393.87 337.745C1393.85 337.93 1393.78 338.11 1393.64 338.253ZM1384.92 329.599C1384.62 329.914 1384.14 329.932 1383.82 329.654C1383.51 329.361 1383.49 328.877 1383.77 328.56C1384.06 328.245 1384.55 328.212 1384.86 328.505C1385.05 328.678 1385.13 328.919 1385.11 329.15C1385.1 329.304 1385.04 329.47 1384.92 329.599ZM1375.63 321.546C1375.36 321.879 1374.88 321.928 1374.54 321.664C1374.21 321.385 1374.16 320.898 1374.44 320.566C1374.7 320.233 1375.19 320.184 1375.52 320.463C1375.73 320.637 1375.83 320.88 1375.8 321.127C1375.79 321.281 1375.73 321.431 1375.63 321.546ZM1366.09 313.813C1365.81 314.145 1365.32 314.193 1364.99 313.929C1364.66 313.665 1364.61 313.179 1364.87 312.845C1365.13 312.512 1365.62 312.463 1365.95 312.727C1366.17 312.903 1366.27 313.145 1366.25 313.407C1366.24 313.546 1366.18 313.696 1366.09 313.813ZM1356.57 306.034C1356.29 306.351 1355.81 306.384 1355.49 306.106C1355.16 305.812 1355.13 305.326 1355.4 305.01C1355.7 304.695 1356.18 304.661 1356.5 304.939C1356.7 305.098 1356.79 305.354 1356.77 305.586C1356.75 305.74 1356.69 305.905 1356.57 306.034ZM1367.81 170.484C1367.4 170.461 1367.07 170.089 1367.1 169.656C1367.12 169.238 1367.49 168.915 1367.93 168.939C1368.36 168.963 1368.68 169.335 1368.64 169.767C1368.64 169.767 1368.64 169.767 1368.64 169.782C1368.6 170.198 1368.25 170.508 1367.81 170.484ZM1365.98 181.948C1365.84 182.339 1365.39 182.546 1365 182.401C1364.59 182.24 1364.38 181.801 1364.54 181.396C1364.69 180.989 1365.14 180.798 1365.53 180.942C1365.86 181.066 1366.07 181.395 1366.04 181.735C1366.03 181.812 1366.01 181.872 1365.98 181.948ZM1367.18 158.265C1366.75 158.35 1366.34 158.063 1366.26 157.651C1366.19 157.225 1366.44 156.828 1366.87 156.743C1367.28 156.657 1367.69 156.928 1367.78 157.34C1367.8 157.42 1367.79 157.497 1367.79 157.559C1367.76 157.898 1367.51 158.186 1367.18 158.265ZM1360.22 192.941C1359.98 193.293 1359.49 193.388 1359.14 193.154C1358.79 192.919 1358.69 192.444 1358.93 192.077C1359.16 191.725 1359.64 191.629 1360 191.865C1360.25 192.027 1360.37 192.302 1360.34 192.58C1360.33 192.703 1360.29 192.839 1360.22 192.941ZM1363.59 146.537C1363.2 146.703 1362.74 146.52 1362.57 146.132C1362.4 145.743 1362.59 145.278 1362.97 145.112C1363.36 144.945 1363.81 145.126 1363.99 145.516C1364.05 145.63 1364.06 145.771 1364.05 145.895C1364.03 146.157 1363.85 146.42 1363.59 146.537ZM1347.61 297.638C1347.3 297.936 1346.8 297.922 1346.5 297.615C1346.2 297.307 1346.22 296.827 1346.52 296.528C1346.83 296.23 1347.31 296.227 1347.61 296.535C1347.78 296.706 1347.86 296.93 1347.84 297.146C1347.82 297.331 1347.74 297.495 1347.61 297.638ZM1352.66 202.745C1352.38 203.077 1351.9 203.11 1351.57 202.831C1351.25 202.553 1351.2 202.066 1351.48 201.734C1351.76 201.418 1352.25 201.369 1352.58 201.648C1352.78 201.822 1352.86 202.079 1352.84 202.31C1352.83 202.465 1352.77 202.614 1352.66 202.745ZM1357.84 135.683C1357.49 135.915 1357 135.824 1356.77 135.46C1356.54 135.097 1356.64 134.625 1357.01 134.394C1357.36 134.146 1357.84 134.253 1358.08 134.616C1358.17 134.765 1358.2 134.939 1358.19 135.108C1358.16 135.34 1358.05 135.547 1357.84 135.683ZM1339.41 288.473C1339.08 288.738 1338.58 288.677 1338.34 288.343C1338.06 288.006 1338.12 287.515 1338.45 287.25C1338.79 286.985 1339.28 287.046 1339.54 287.381C1339.67 287.548 1339.73 287.74 1339.71 287.925C1339.69 288.141 1339.6 288.334 1339.41 288.473ZM1344.48 211.946C1344.2 212.263 1343.7 212.294 1343.38 212.001C1343.07 211.723 1343.03 211.223 1343.33 210.907C1343.6 210.591 1344.1 210.574 1344.42 210.852C1344.61 211.025 1344.69 211.266 1344.67 211.497C1344.66 211.652 1344.6 211.817 1344.48 211.946ZM1350.55 125.808C1350.23 126.089 1349.73 126.059 1349.45 125.738C1349.17 125.401 1349.21 124.923 1349.53 124.642C1349.86 124.36 1350.35 124.405 1350.63 124.727C1350.77 124.88 1350.83 125.087 1350.81 125.303C1350.8 125.488 1350.7 125.682 1350.55 125.808ZM1332.36 278.417C1332 278.633 1331.52 278.512 1331.31 278.135C1331.08 277.771 1331.22 277.302 1331.58 277.071C1331.95 276.872 1332.43 276.993 1332.64 277.355C1332.72 277.502 1332.75 277.661 1332.74 277.815C1332.72 278.061 1332.59 278.283 1332.36 278.417ZM1336.56 221.265C1336.3 221.599 1335.81 221.663 1335.48 221.399C1335.13 221.134 1335.08 220.647 1335.34 220.314C1335.61 219.98 1336.08 219.915 1336.43 220.18C1336.65 220.34 1336.75 220.613 1336.72 220.86C1336.71 220.999 1336.65 221.149 1336.56 221.265ZM1342.06 116.927C1341.77 117.242 1341.29 117.26 1340.97 116.967C1340.66 116.689 1340.64 116.19 1340.93 115.874C1341.21 115.558 1341.71 115.541 1342.02 115.835C1342.21 116.007 1342.28 116.247 1342.26 116.478C1342.25 116.632 1342.19 116.798 1342.06 116.927ZM1327.01 267.383C1326.61 267.517 1326.16 267.305 1326.03 266.904C1325.88 266.502 1326.09 266.054 1326.49 265.92C1326.89 265.771 1327.34 265.983 1327.49 266.385C1327.53 266.497 1327.53 266.607 1327.52 266.715C1327.5 267.008 1327.3 267.27 1327.01 267.383ZM1329.86 231.38C1329.66 231.75 1329.19 231.894 1328.82 231.705C1328.44 231.498 1328.29 231.034 1328.5 230.649C1328.7 230.279 1329.17 230.135 1329.54 230.325C1329.82 230.475 1329.98 230.785 1329.96 231.078C1329.94 231.186 1329.92 231.277 1329.86 231.38ZM1324.18 255.46C1323.76 255.499 1323.39 255.185 1323.35 254.746C1323.31 254.323 1323.64 253.949 1324.06 253.925C1324.48 253.886 1324.86 254.201 1324.9 254.624C1324.89 254.67 1324.91 254.718 1324.9 254.764C1324.87 255.119 1324.56 255.433 1324.18 255.46ZM1325.66 242.642L1325.67 242.643C1325.57 243.054 1325.16 243.327 1324.75 243.227C1324.32 243.141 1324.06 242.729 1324.15 242.317C1324.25 241.891 1324.65 241.632 1325.07 241.718C1325.46 241.799 1325.72 242.165 1325.68 242.551C1325.68 242.582 1325.68 242.613 1325.66 242.642ZM1332.72 108.962C1332.44 109.294 1331.97 109.36 1331.63 109.096C1331.3 108.832 1331.24 108.344 1331.5 108.011C1331.76 107.677 1332.25 107.613 1332.59 107.877C1332.8 108.052 1332.9 108.311 1332.88 108.557C1332.87 108.696 1332.81 108.846 1332.72 108.962ZM1322.95 101.504C1322.7 101.838 1322.22 101.918 1321.87 101.668C1321.53 101.404 1321.45 100.93 1321.72 100.581C1321.97 100.231 1322.46 100.167 1322.8 100.417C1323.02 100.592 1323.12 100.85 1323.1 101.112C1323.09 101.251 1323.04 101.387 1322.95 101.504ZM1313.08 94.1748C1312.83 94.5251 1312.34 94.5894 1311.99 94.3395C1311.66 94.0756 1311.58 93.5861 1311.85 93.2528C1312.11 92.9039 1312.58 92.8384 1312.93 93.1039C1313.15 93.2637 1313.27 93.5386 1313.24 93.7854C1313.23 93.924 1313.17 94.0587 1313.08 94.1748ZM1303.39 86.6447C1303.11 86.9768 1302.62 87.0254 1302.29 86.7615C1301.95 86.4822 1301.91 85.9957 1302.19 85.6637C1302.45 85.3302 1302.93 85.297 1303.27 85.5609C1303.48 85.7362 1303.57 85.9775 1303.55 86.2243C1303.53 86.3785 1303.47 86.5285 1303.39 86.6447ZM1294.14 78.5653C1293.84 78.8636 1293.35 78.866 1293.04 78.5727C1293.04 78.5727 1293.04 78.5727 1293.05 78.5741C1292.74 78.2808 1292.72 77.7817 1293.03 77.4834C1293.32 77.1682 1293.81 77.1658 1294.12 77.4591C1294.29 77.6302 1294.38 77.8715 1294.36 78.0874C1294.34 78.257 1294.27 78.421 1294.14 78.5653ZM1285.75 69.5991C1285.41 69.8792 1284.92 69.8185 1284.65 69.4986C1284.39 69.1633 1284.43 68.6698 1284.77 68.4051C1285.1 68.1404 1285.58 68.1843 1285.86 68.5211C1285.99 68.6726 1286.04 68.8801 1286.03 69.0806C1286.01 69.2811 1285.91 69.4745 1285.75 69.5991ZM1278.79 59.5056C1278.41 59.7043 1277.94 59.5679 1277.75 59.1767C1277.53 58.8148 1277.68 58.3465 1278.06 58.1325C1278.44 57.9337 1278.91 58.0701 1279.1 58.4459C1279.18 58.5933 1279.2 58.7348 1279.19 58.889C1279.16 59.1357 1279.03 59.3726 1278.79 59.5056ZM1273.86 48.2614C1273.45 48.3942 1273.02 48.1681 1272.88 47.7516C1272.77 47.3519 1272.98 46.9204 1273.39 46.7875C1273.79 46.6533 1274.24 46.8808 1274.36 47.2804C1274.39 47.3926 1274.4 47.4865 1274.39 47.5945C1274.36 47.8874 1274.17 48.1649 1273.86 48.2614ZM1275.49 11.9129C1275.3 12.2996 1274.83 12.4435 1274.46 12.2538C1274.07 12.0628 1273.91 11.6127 1274.1 11.2259C1274.3 10.8393 1274.76 10.6798 1275.15 10.8707C1275.43 11.021 1275.6 11.3324 1275.57 11.6408C1275.57 11.7335 1275.54 11.8244 1275.49 11.9129ZM1271.15 36.2872C1270.73 36.3415 1270.35 36.0273 1270.3 35.6023C1270.3 35.6023 1270.3 35.6023 1270.31 35.6037C1270.26 35.1789 1270.57 34.8034 1271 34.7492C1271.42 34.7103 1271.8 35.0093 1271.85 35.4341L1271.85 35.4496C1271.85 35.4958 1271.86 35.5435 1271.86 35.5898C1271.82 35.9597 1271.53 36.2595 1271.15 36.2872ZM1271.13 24.0308C1270.71 23.9772 1270.41 23.5913 1270.47 23.1622C1270.53 22.732 1270.93 22.442 1271.34 22.5112C1271.77 22.5663 1272.07 22.9507 1272.01 23.381C1271.94 23.81 1271.55 24.1011 1271.13 24.0308Z" fill="white"/>
<path d="M1283.03 1.73534C1283.02 1.84329 1283 1.9344 1282.96 2.02409C1282.9 2.11237 1282.85 2.18519 1282.77 2.25521C1282.68 2.32524 1282.6 2.3644 1282.51 2.40232C1282.41 2.42466 1282.3 2.44552 1282.21 2.43717C1281.99 2.41735 1281.8 2.30638 1281.67 2.15486C1281.48 1.91915 1281.45 1.57426 1281.58 1.30674C1281.64 1.21832 1281.71 1.13148 1281.77 1.06004C1281.93 0.934129 1282.14 0.875403 1282.35 0.895078C1282.44 0.903571 1282.55 0.928867 1282.64 0.983623C1282.73 1.02296 1282.8 1.09163 1282.87 1.16039C1282.99 1.32734 1283.05 1.51945 1283.03 1.73534Z" fill="white"/>
<path d="M31.1056 444.661C30.4856 444.661 29.9984 444.154 29.9984 443.553C29.9984 442.936 30.5077 442.446 31.1056 442.446C31.7256 442.446 32.2127 442.956 32.2127 443.553C32.2127 444.176 31.7034 444.661 31.1056 444.661ZM47.5799 441.541C47.4249 440.943 47.7792 440.345 48.3549 440.19C48.9528 440.013 49.5507 440.367 49.7278 440.965C49.8828 441.543 49.5507 442.161 48.9528 442.316C48.8421 442.338 48.7535 442.36 48.6649 442.36C48.1778 442.358 47.7349 442.028 47.5799 441.541ZM13.2805 441.939C12.7047 441.762 12.3726 441.142 12.5497 440.544C12.749 439.969 13.369 439.636 13.9448 439.836C14.5205 440.013 14.8526 440.633 14.6755 441.209C14.5205 441.696 14.0776 441.984 13.6126 441.984C13.5019 441.981 13.3912 441.961 13.2805 441.939ZM63.8993 434.696C63.5672 434.167 63.7222 433.478 64.2536 433.171C64.7629 432.839 65.4493 432.993 65.7815 433.501C66.0915 434.032 65.9365 434.696 65.4272 435.031C65.25 435.141 65.0507 435.208 64.8293 435.208C64.475 435.208 64.1207 435.031 63.8993 434.696ZM-2.6182 433.326C-3.0832 432.925 -3.12748 432.219 -2.72891 431.754C-2.33033 431.286 -1.64391 431.244 -1.1789 431.641C-0.7139 432.017 -0.669615 432.726 -1.04605 433.191C-1.26748 433.456 -1.57748 433.589 -1.90962 433.589C-2.15319 433.589 -2.41891 433.501 -2.6182 433.326ZM77.9822 423.937C77.5615 423.494 77.5837 422.783 78.0265 422.365C78.4694 421.944 79.178 421.964 79.5987 422.409C80.0194 422.852 79.9973 423.563 79.5544 423.981C79.333 424.181 79.0672 424.294 78.8015 424.294C78.4915 424.291 78.2037 424.158 77.9822 423.937ZM90.028 410.893C89.5409 410.516 89.4523 409.81 89.8287 409.345C90.2273 408.855 90.9137 408.767 91.4009 409.168C91.8659 409.544 91.9545 410.228 91.578 410.718C91.3566 410.981 91.0245 411.136 90.7145 411.136C90.4709 411.138 90.2273 411.05 90.028 410.893ZM100.435 396.524C99.9259 396.17 99.7709 395.481 100.125 394.974L100.103 394.974C100.457 394.465 101.144 394.332 101.653 394.664C102.162 394.994 102.295 395.683 101.963 396.19C101.742 396.522 101.41 396.699 101.033 396.699C100.834 396.701 100.612 396.635 100.435 396.524ZM109.868 381.465C109.359 381.155 109.182 380.47 109.492 379.959C109.802 379.427 110.488 379.25 111.02 379.582C111.551 379.892 111.706 380.557 111.396 381.088C111.197 381.442 110.82 381.62 110.444 381.62C110.245 381.622 110.045 381.577 109.868 381.465ZM119.035 366.255C118.504 365.942 118.349 365.258 118.659 364.727C118.991 364.22 119.677 364.04 120.187 364.372C120.718 364.685 120.873 365.369 120.563 365.9C120.342 366.232 119.987 366.407 119.611 366.407C119.412 366.407 119.212 366.365 119.035 366.255ZM351.891 359.235C351.271 359.257 350.762 358.768 350.739 358.172C350.717 357.552 351.182 357.043 351.802 357.021C352.422 356.997 352.932 357.462 352.954 358.082C352.976 358.682 352.511 359.211 351.891 359.235ZM333.977 358.104C333.379 358.015 332.959 357.439 333.069 356.844C333.158 356.244 333.711 355.825 334.331 355.914C334.929 356.025 335.35 356.578 335.239 357.196C335.173 357.727 334.686 358.128 334.154 358.128C334.088 358.128 334.044 358.128 333.977 358.104ZM368.232 355.447C368.033 354.871 368.365 354.253 368.941 354.052C369.517 353.874 370.159 354.184 370.336 354.76C370.535 355.36 370.203 355.978 369.627 356.155C369.517 356.202 369.406 356.222 369.295 356.222C368.83 356.224 368.387 355.914 368.232 355.447ZM316.551 354.076C315.953 353.899 315.621 353.279 315.82 352.703C315.975 352.103 316.595 351.773 317.193 351.95C317.769 352.125 318.101 352.745 317.924 353.321C317.791 353.81 317.348 354.118 316.861 354.118C316.772 354.12 316.661 354.098 316.551 354.076ZM128.734 351.372C128.247 351.018 128.136 350.332 128.49 349.847L128.49 349.824C128.845 349.335 129.531 349.224 130.018 349.581C130.528 349.935 130.638 350.622 130.284 351.131C130.284 351.131 130.284 351.131 130.284 351.107C130.063 351.419 129.73 351.572 129.376 351.572C129.155 351.572 128.933 351.507 128.734 351.372ZM299.744 347.942C299.191 347.699 298.925 347.059 299.168 346.481C299.412 345.927 300.054 345.662 300.63 345.905C301.183 346.149 301.449 346.791 301.206 347.344C301.028 347.785 300.63 348.031 300.187 348.031C300.054 348.031 299.899 348.009 299.744 347.942ZM384.042 347.566C383.666 347.079 383.755 346.392 384.242 346.016C384.729 345.639 385.415 345.728 385.792 346.215C386.168 346.705 386.08 347.389 385.592 347.765C385.393 347.92 385.172 347.989 384.928 347.989C384.596 347.987 384.264 347.854 384.042 347.566ZM283.668 340.192C283.137 339.882 282.938 339.22 283.226 338.687C283.513 338.133 284.178 337.934 284.731 338.222L284.709 338.244C285.263 338.532 285.462 339.196 285.174 339.727C284.975 340.104 284.598 340.303 284.2 340.303C284.023 340.301 283.846 340.281 283.668 340.192ZM139.65 337.356C139.185 336.957 139.141 336.273 139.54 335.808C139.96 335.343 140.647 335.299 141.112 335.695C141.577 336.116 141.599 336.827 141.2 337.267C140.979 337.511 140.691 337.646 140.381 337.646C140.115 337.646 139.85 337.557 139.65 337.356ZM396.265 334.812C395.734 334.479 395.601 333.793 395.933 333.284C396.265 332.752 396.952 332.619 397.461 332.954C397.97 333.284 398.125 333.972 397.793 334.479C397.572 334.812 397.218 334.989 396.863 334.989C396.642 334.989 396.443 334.922 396.265 334.812ZM268.058 331.712C268.058 331.712 268.058 331.712 268.058 331.734C267.526 331.424 267.305 330.762 267.615 330.228C267.903 329.674 268.567 329.475 269.098 329.785C269.652 330.073 269.851 330.739 269.563 331.269C269.342 331.645 268.965 331.847 268.589 331.847C268.412 331.844 268.213 331.82 268.058 331.712ZM152.228 324.869C151.829 324.382 151.918 323.696 152.383 323.297C152.848 322.921 153.556 322.987 153.933 323.452C154.331 323.917 154.265 324.624 153.778 325.024C153.578 325.177 153.335 325.266 153.069 325.266C152.759 325.268 152.449 325.135 152.228 324.869ZM252.314 323.563C251.782 323.297 251.539 322.633 251.827 322.079C252.092 321.526 252.757 321.302 253.288 321.57L253.31 321.57C253.842 321.836 254.085 322.5 253.797 323.054C253.62 323.454 253.222 323.674 252.801 323.674C252.646 323.674 252.491 323.651 252.314 323.563ZM403.905 318.869C403.329 318.691 402.997 318.071 403.196 317.474C403.371 316.898 403.993 316.566 404.569 316.765C405.167 316.942 405.477 317.562 405.3 318.138C405.145 318.625 404.702 318.913 404.237 318.913C404.126 318.911 404.015 318.891 403.905 318.869ZM236.194 316.344C235.618 316.121 235.352 315.478 235.574 314.905C235.795 314.329 236.437 314.064 237.013 314.285C237.589 314.509 237.855 315.151 237.633 315.724C237.456 316.167 237.035 316.433 236.615 316.433C236.46 316.433 236.327 316.411 236.194 316.344ZM166.864 314.883C166.598 314.351 166.82 313.687 167.351 313.399C167.905 313.134 168.569 313.353 168.857 313.886C169.123 314.44 168.901 315.104 168.348 315.37C168.193 315.459 168.038 315.505 167.861 315.505C167.462 315.503 167.063 315.281 166.864 314.883ZM219.454 310.875C218.878 310.742 218.524 310.144 218.657 309.546C218.812 308.946 219.409 308.594 220.007 308.749L220.007 308.727C220.583 308.882 220.959 309.48 220.804 310.078C220.694 310.585 220.229 310.919 219.742 310.919C219.653 310.919 219.542 310.897 219.454 310.875ZM183.471 308.727C183.339 308.129 183.715 307.531 184.335 307.421L184.313 307.421C184.933 307.286 185.509 307.664 185.641 308.284C185.752 308.862 185.376 309.458 184.778 309.591C184.689 309.591 184.623 309.615 184.556 309.615C184.047 309.613 183.582 309.259 183.471 308.727ZM202.16 308.262C201.54 308.218 201.075 307.709 201.097 307.089C201.119 306.493 201.651 306.006 202.271 306.048C202.869 306.07 203.334 306.579 203.311 307.201C203.289 307.799 202.802 308.262 202.204 308.262C202.182 308.262 202.182 308.262 202.16 308.262ZM407.935 301.597C407.315 301.486 406.916 300.933 407.005 300.335C407.093 299.715 407.669 299.316 408.267 299.405C408.865 299.493 409.285 300.047 409.197 300.667C409.108 301.196 408.643 301.597 408.09 301.597C408.045 301.597 407.979 301.597 407.935 301.597ZM410.016 283.949C409.418 283.903 408.975 283.349 409.02 282.753C409.086 282.133 409.618 281.691 410.238 281.757C410.835 281.801 411.278 282.333 411.234 282.953C411.168 283.528 410.681 283.949 410.127 283.949C410.083 283.949 410.06 283.949 410.016 283.949ZM411.699 266.257C411.079 266.19 410.636 265.637 410.703 265.039C410.769 264.419 411.323 263.976 411.943 264.065C412.54 264.109 412.983 264.663 412.917 265.283C412.85 265.836 412.363 266.257 411.81 266.257C411.766 266.257 411.721 266.257 411.699 266.257ZM414.268 248.695C413.648 248.562 413.271 247.967 413.404 247.367C413.537 246.791 414.113 246.392 414.711 246.525C415.308 246.658 415.707 247.234 415.574 247.832C415.463 248.363 414.998 248.717 414.489 248.717C414.4 248.72 414.334 248.695 414.268 248.695ZM419.183 231.647C418.608 231.424 418.342 230.782 418.586 230.208C418.807 229.655 419.471 229.367 420.025 229.61C420.601 229.852 420.866 230.494 420.623 231.069C420.446 231.49 420.025 231.736 419.604 231.736C419.449 231.736 419.316 231.712 419.183 231.647ZM427.819 216.236C427.354 215.859 427.266 215.151 427.642 214.686C428.041 214.199 428.727 214.11 429.214 214.509C429.679 214.885 429.768 215.569 429.389 216.059C429.168 216.324 428.836 216.479 428.526 216.479C428.284 216.479 428.041 216.391 427.819 216.236ZM630.383 214.442C630.383 214.442 630.383 214.442 630.383 214.42C629.785 214.398 629.32 213.867 629.342 213.267C629.387 212.649 629.896 212.184 630.516 212.226C631.114 212.248 631.579 212.779 631.557 213.379C631.512 213.975 631.025 214.44 630.45 214.44C630.427 214.442 630.405 214.442 630.383 214.442ZM647.101 213.267C647.035 212.669 647.5 212.137 648.12 212.095C648.718 212.049 649.249 212.494 649.293 213.114C649.338 213.712 648.895 214.243 648.275 214.285C648.253 214.285 648.208 214.285 648.186 214.285C647.61 214.285 647.123 213.867 647.101 213.267ZM612.624 212.494C612.027 212.383 611.606 211.829 611.717 211.232C611.805 210.614 612.381 210.213 612.979 210.302C613.577 210.39 613.997 210.966 613.887 211.564C613.82 212.117 613.333 212.494 612.802 212.494C612.735 212.494 612.691 212.494 612.624 212.494ZM664.638 210.7C664.483 210.1 664.86 209.504 665.458 209.349C666.033 209.194 666.631 209.571 666.786 210.147C666.941 210.744 666.565 211.342 665.989 211.495C665.9 211.517 665.812 211.542 665.723 211.542C665.214 211.542 664.771 211.187 664.638 210.7ZM595.154 208.927C594.556 208.774 594.179 208.174 594.334 207.598C594.467 207.002 595.065 206.624 595.663 206.779C596.261 206.914 596.637 207.509 596.482 208.109C596.349 208.616 595.906 208.951 595.397 208.951C595.331 208.951 595.242 208.951 595.154 208.927ZM681.401 204.899C681.135 204.345 681.356 203.681 681.91 203.415C682.441 203.149 683.106 203.369 683.371 203.922C683.659 204.476 683.416 205.14 682.884 205.406C682.707 205.472 682.552 205.516 682.397 205.516C681.976 205.516 681.578 205.297 681.401 204.899ZM577.949 204.389C577.949 204.389 577.949 204.389 577.949 204.367C577.351 204.212 577.018 203.592 577.174 203.017C577.351 202.419 577.949 202.087 578.546 202.242C579.122 202.419 579.476 203.017 579.299 203.614C579.166 204.102 578.724 204.409 578.236 204.409C578.126 204.409 578.037 204.409 577.949 204.389ZM440.463 203.836C440.109 203.349 440.219 202.64 440.729 202.286L440.706 202.286C441.216 201.934 441.902 202.044 442.256 202.552C442.611 203.041 442.5 203.725 442.013 204.079C442.013 204.079 442.013 204.079 442.013 204.102C441.814 204.237 441.592 204.301 441.371 204.301C441.016 204.301 440.684 204.146 440.463 203.836ZM560.854 199.474C560.278 199.319 559.924 198.699 560.101 198.101C560.278 197.525 560.876 197.171 561.474 197.348C562.072 197.525 562.404 198.123 562.227 198.721C562.094 199.208 561.651 199.516 561.164 199.516C561.076 199.516 560.965 199.516 560.854 199.474ZM696.391 195.464C695.993 195.023 696.037 194.312 696.502 193.916C696.945 193.515 697.654 193.561 698.052 194.004C698.451 194.469 698.406 195.176 697.964 195.576C697.742 195.754 697.476 195.842 697.233 195.842C696.923 195.842 696.613 195.729 696.391 195.464ZM455.852 195.023C455.609 194.469 455.874 193.827 456.428 193.584C457.004 193.34 457.646 193.606 457.889 194.184C458.111 194.737 457.867 195.402 457.291 195.621C457.159 195.687 457.004 195.709 456.871 195.709C456.428 195.709 456.029 195.464 455.852 195.023ZM543.76 194.801C543.162 194.649 542.808 194.049 542.963 193.453C543.118 192.853 543.716 192.499 544.313 192.656C544.911 192.811 545.266 193.409 545.11 194.007C544.978 194.514 544.535 194.848 544.048 194.848C543.937 194.846 543.848 194.824 543.76 194.801ZM526.51 190.926C525.913 190.816 525.514 190.24 525.625 189.62C525.735 189.044 526.311 188.648 526.909 188.756C527.529 188.867 527.905 189.443 527.795 190.041C527.706 190.57 527.241 190.949 526.71 190.949C526.643 190.949 526.577 190.949 526.51 190.926ZM472.725 189.598C472.592 189 472.969 188.402 473.567 188.267L473.589 188.267C474.164 188.136 474.762 188.533 474.895 189.133C475.028 189.731 474.629 190.306 474.032 190.439C473.965 190.461 473.899 190.461 473.81 190.461C473.301 190.461 472.836 190.105 472.725 189.598ZM509.04 188.444C508.442 188.4 507.977 187.846 508.043 187.249C508.087 186.631 508.641 186.188 509.239 186.254C509.859 186.296 510.302 186.83 510.235 187.45C510.191 188.026 509.704 188.444 509.15 188.444C509.106 188.444 509.084 188.444 509.04 188.444ZM490.284 187.096C490.262 186.476 490.727 185.966 491.347 185.922C491.945 185.9 492.477 186.365 492.499 186.963C492.543 187.583 492.078 188.094 491.458 188.136C491.436 188.136 491.436 188.136 491.414 188.136C490.816 188.136 490.329 187.694 490.284 187.096ZM707.972 182.091C707.441 181.779 707.286 181.095 707.618 180.583C707.928 180.052 708.614 179.877 709.124 180.207C709.655 180.517 709.81 181.203 709.5 181.735C709.279 182.065 708.924 182.264 708.548 182.264C708.349 182.266 708.149 182.202 707.972 182.091ZM715.324 165.993C714.748 165.816 714.394 165.218 714.571 164.621C714.726 164.045 715.346 163.691 715.922 163.868C716.519 164.023 716.874 164.643 716.696 165.218C716.564 165.706 716.121 166.038 715.634 166.038C715.523 166.038 715.434 166.013 715.324 165.993ZM716.785 147.416C716.763 146.796 717.25 146.284 717.87 146.264C718.468 146.264 718.977 146.729 718.999 147.349C719.021 147.969 718.534 148.478 717.914 148.478C717.914 148.478 717.914 148.478 717.892 148.478C717.294 148.478 716.807 148.013 716.785 147.416ZM713.22 130.543C712.977 129.989 713.242 129.325 713.796 129.103C714.371 128.838 715.014 129.103 715.257 129.679C715.501 130.233 715.235 130.875 714.681 131.118C714.549 131.185 714.394 131.207 714.239 131.207C713.818 131.207 713.397 130.963 713.22 130.543Z" fill="white"/>
<defs>
<filter id="filter0_f_189_451" x="-401.344" y="-27.7335" width="1088.22" height="1160.38" filterUnits="userSpaceOnUse" color-interpolation-filters="sRGB">
<feFlood flood-opacity="0" result="BackgroundImageFix"/>
<feBlend mode="normal" in="SourceGraphic" in2="BackgroundImageFix" result="shape"/>
<feGaussianBlur stdDeviation="150" result="effect1_foregroundBlur_189_451"/>
</filter>
<filter id="filter1_f_189_451" x="934.656" y="-317.733" width="1088.22" height="1160.38" filterUnits="userSpaceOnUse" color-interpolation-filters="sRGB">
<feFlood flood-opacity="0" result="BackgroundImageFix"/>
<feBlend mode="normal" in="SourceGraphic" in2="BackgroundImageFix" result="shape"/>
<feGaussianBlur stdDeviation="150" result="effect1_foregroundBlur_189_451"/>
</filter>
<linearGradient id="paint0_linear_189_451" x1="719" y1="-0.000124574" x2="719" y2="961" gradientUnits="userSpaceOnUse">
<stop stop-color="#F5F8FD"/>
<stop offset="1" stop-color="#F5F8FD" stop-opacity="0"/>
</linearGradient>
<radialGradient id="paint1_radial_189_451" cx="0" cy="0" r="1" gradientUnits="userSpaceOnUse" gradientTransform="translate(78.0247 509.622) rotate(73.0604) scale(251.144 224.064)">
<stop stop-color="#3A76D1"/>
<stop offset="1" stop-color="#4868D8" stop-opacity="0"/>
</radialGradient>
<radialGradient id="paint2_radial_189_451" cx="0" cy="0" r="1" gradientUnits="userSpaceOnUse" gradientTransform="translate(1414.02 219.622) rotate(73.0604) scale(251.144 224.064)">
<stop stop-color="#3A76D1"/>
<stop offset="1" stop-color="#4868D8" stop-opacity="0"/>
</radialGradient>
</defs>
</svg>
