<svg width="1440" height="1492" viewBox="0 0 1440 1492" fill="none" xmlns="http://www.w3.org/2000/svg">
<path d="M-89.8944 612.661C-90.5144 612.661 -91.0016 612.154 -91.0016 611.554C-91.0016 610.936 -90.4923 610.446 -89.8944 610.446C-89.2744 610.446 -88.7873 610.956 -88.7873 611.554C-88.7873 612.176 -89.2966 612.661 -89.8944 612.661ZM-73.4201 609.541C-73.5751 608.943 -73.2208 608.345 -72.6451 608.19C-72.0472 608.013 -71.4493 608.367 -71.2722 608.965C-71.1172 609.543 -71.4493 610.161 -72.0472 610.316C-72.1579 610.338 -72.2465 610.36 -72.3351 610.36C-72.8222 610.358 -73.2651 610.028 -73.4201 609.541ZM-107.72 609.939C-108.295 609.762 -108.627 609.142 -108.45 608.544C-108.251 607.969 -107.631 607.637 -107.055 607.836C-106.48 608.013 -106.147 608.633 -106.325 609.209C-106.48 609.696 -106.922 609.984 -107.387 609.984C-107.498 609.981 -107.609 609.962 -107.72 609.939ZM-57.1007 602.696C-57.4328 602.167 -57.2778 601.479 -56.7464 601.171C-56.2371 600.839 -55.5507 600.994 -55.2185 601.501C-54.9085 602.032 -55.0635 602.696 -55.5728 603.031C-55.75 603.141 -55.9493 603.208 -56.1707 603.208C-56.525 603.208 -56.8793 603.031 -57.1007 602.696ZM-123.618 601.326C-124.083 600.925 -124.127 600.219 -123.729 599.754C-123.33 599.286 -122.644 599.244 -122.179 599.641C-121.714 600.017 -121.67 600.726 -122.046 601.191C-122.267 601.456 -122.577 601.589 -122.91 601.589C-123.153 601.589 -123.419 601.501 -123.618 601.326ZM-43.0178 591.937C-43.4385 591.494 -43.4163 590.783 -42.9735 590.365C-42.5306 589.944 -41.822 589.964 -41.4013 590.409C-40.9806 590.852 -41.0028 591.563 -41.4456 591.981C-41.667 592.181 -41.9328 592.294 -42.1985 592.294C-42.5085 592.291 -42.7963 592.159 -43.0178 591.937ZM-30.972 578.893C-31.4591 578.516 -31.5477 577.81 -31.1713 577.345C-30.7727 576.856 -30.0863 576.767 -29.5991 577.168C-29.1341 577.544 -29.0455 578.228 -29.422 578.718C-29.6434 578.981 -29.9755 579.136 -30.2855 579.136C-30.5291 579.139 -30.7727 579.05 -30.972 578.893ZM-20.5648 564.524C-21.0741 564.17 -21.2291 563.481 -20.8748 562.974H-20.8969C-20.5426 562.465 -19.8562 562.332 -19.3469 562.664C-18.8376 562.994 -18.7048 563.683 -19.0369 564.19C-19.2583 564.522 -19.5905 564.699 -19.9669 564.699C-20.1662 564.701 -20.3876 564.635 -20.5648 564.524ZM-11.1319 549.465C-11.6412 549.155 -11.8183 548.47 -11.5083 547.959C-11.1983 547.428 -10.5119 547.25 -9.98043 547.583C-9.449 547.893 -9.294 548.557 -9.60401 549.088C-9.80329 549.443 -10.1797 549.62 -10.5562 549.62C-10.7554 549.622 -10.9547 549.578 -11.1319 549.465ZM-1.96468 534.255C-2.49611 533.942 -2.6511 533.258 -2.3411 532.727C-2.00896 532.22 -1.32253 532.04 -0.81324 532.373C-0.281809 532.685 -0.126812 533.369 -0.436814 533.9C-0.658244 534.233 -1.01252 534.407 -1.38895 534.407C-1.58824 534.407 -1.78753 534.365 -1.96468 534.255ZM230.891 527.235C230.271 527.258 229.762 526.768 229.739 526.173C229.717 525.553 230.182 525.043 230.802 525.021C231.422 524.997 231.932 525.462 231.954 526.082C231.976 526.682 231.511 527.211 230.891 527.235ZM212.977 526.104C212.379 526.015 211.959 525.44 212.069 524.844C212.158 524.244 212.711 523.825 213.331 523.914C213.929 524.025 214.35 524.578 214.239 525.196C214.173 525.727 213.686 526.128 213.154 526.128C213.088 526.128 213.044 526.128 212.977 526.104ZM247.232 523.447C247.033 522.871 247.365 522.253 247.941 522.052C248.517 521.875 249.159 522.185 249.336 522.76C249.535 523.36 249.203 523.978 248.627 524.155C248.517 524.202 248.406 524.222 248.295 524.222C247.83 524.224 247.387 523.914 247.232 523.447ZM195.551 522.076C194.953 521.899 194.621 521.279 194.82 520.703C194.975 520.103 195.595 519.773 196.193 519.95C196.769 520.125 197.101 520.745 196.924 521.321C196.791 521.81 196.348 522.118 195.861 522.118C195.772 522.12 195.661 522.098 195.551 522.076ZM7.73395 519.372C7.2468 519.018 7.13609 518.332 7.49038 517.847V517.825C7.84466 517.335 8.53109 517.225 9.01824 517.581C9.52753 517.935 9.63824 518.622 9.28395 519.131C9.28395 519.131 9.28395 519.131 9.28395 519.107C9.06252 519.419 8.73038 519.572 8.37609 519.572C8.15466 519.572 7.93324 519.507 7.73395 519.372ZM178.744 515.942C178.191 515.699 177.925 515.059 178.168 514.481C178.412 513.927 179.054 513.662 179.63 513.905C180.183 514.149 180.449 514.791 180.206 515.345C180.028 515.785 179.63 516.031 179.187 516.031C179.054 516.031 178.899 516.009 178.744 515.942ZM263.042 515.566C262.666 515.079 262.755 514.392 263.242 514.016C263.729 513.64 264.415 513.728 264.792 514.215C265.168 514.705 265.08 515.389 264.593 515.765C264.393 515.92 264.172 515.989 263.928 515.989C263.596 515.987 263.264 515.854 263.042 515.566ZM162.668 508.192C162.137 507.882 161.938 507.22 162.226 506.687C162.513 506.133 163.178 505.934 163.731 506.222L163.709 506.244C164.263 506.532 164.462 507.196 164.174 507.727C163.975 508.104 163.598 508.303 163.2 508.303C163.023 508.301 162.846 508.281 162.668 508.192ZM18.6504 505.356C18.1854 504.957 18.1412 504.273 18.5397 503.808C18.9604 503.343 19.6469 503.299 20.1119 503.695C20.5769 504.116 20.599 504.827 20.2004 505.267C19.979 505.511 19.6912 505.646 19.3812 505.646C19.1154 505.646 18.8497 505.557 18.6504 505.356ZM275.265 502.812C274.734 502.48 274.601 501.793 274.933 501.284C275.265 500.752 275.952 500.62 276.461 500.954C276.97 501.284 277.125 501.972 276.793 502.48C276.572 502.812 276.218 502.989 275.863 502.989C275.642 502.989 275.443 502.922 275.265 502.812ZM147.058 499.712C147.058 499.712 147.058 499.712 147.058 499.734C146.526 499.424 146.305 498.762 146.615 498.228C146.903 497.674 147.567 497.475 148.098 497.785C148.652 498.073 148.851 498.74 148.563 499.269C148.342 499.645 147.965 499.847 147.589 499.847C147.412 499.845 147.213 499.82 147.058 499.712ZM31.2276 492.869C30.8291 492.382 30.9176 491.696 31.3826 491.297C31.8476 490.921 32.5562 490.987 32.9327 491.452C33.3312 491.917 33.2648 492.624 32.7777 493.024C32.5784 493.177 32.3348 493.266 32.0691 493.266C31.7591 493.268 31.4491 493.135 31.2276 492.869ZM131.314 491.563C130.782 491.297 130.539 490.633 130.827 490.079C131.092 489.526 131.757 489.302 132.288 489.57H132.31C132.842 489.836 133.085 490.5 132.797 491.054C132.62 491.455 132.222 491.674 131.801 491.674C131.646 491.674 131.491 491.652 131.314 491.563ZM282.905 486.869C282.329 486.692 281.997 486.072 282.196 485.474C282.371 484.898 282.993 484.566 283.569 484.765C284.167 484.942 284.477 485.562 284.3 486.138C284.145 486.625 283.702 486.913 283.237 486.913C283.126 486.911 283.015 486.891 282.905 486.869ZM115.194 484.344C114.618 484.121 114.352 483.479 114.574 482.905C114.795 482.329 115.437 482.064 116.013 482.285C116.589 482.509 116.855 483.151 116.633 483.724C116.456 484.167 116.035 484.433 115.615 484.433C115.46 484.433 115.327 484.411 115.194 484.344ZM45.8642 482.883C45.5984 482.352 45.8199 481.687 46.3513 481.399C46.9049 481.134 47.5692 481.353 47.857 481.887C48.1227 482.44 47.9013 483.104 47.3477 483.37C47.1927 483.459 47.0377 483.505 46.8606 483.505C46.462 483.503 46.0634 483.282 45.8642 482.883ZM98.4537 478.875C97.878 478.742 97.5237 478.144 97.6566 477.547C97.8116 476.946 98.4094 476.594 99.0073 476.749V476.727C99.583 476.882 99.9594 477.48 99.8044 478.078C99.6937 478.585 99.2287 478.919 98.7416 478.919C98.653 478.919 98.5423 478.897 98.4537 478.875ZM62.4714 476.727C62.3385 476.129 62.715 475.532 63.335 475.421H63.3128C63.9328 475.286 64.5085 475.664 64.6414 476.284C64.7521 476.862 64.3757 477.458 63.7778 477.591C63.6893 477.591 63.6228 477.615 63.5564 477.615C63.0471 477.613 62.5821 477.259 62.4714 476.727ZM81.1601 476.262C80.5401 476.218 80.0751 475.709 80.0972 475.089C80.1193 474.493 80.6508 474.006 81.2708 474.048C81.8686 474.07 82.3336 474.579 82.3115 475.202C82.2893 475.799 81.8022 476.262 81.2043 476.262C81.1822 476.262 81.1822 476.262 81.1601 476.262ZM286.935 469.597C286.315 469.486 285.916 468.933 286.005 468.335C286.093 467.715 286.669 467.316 287.267 467.405C287.865 467.494 288.285 468.047 288.197 468.667C288.108 469.196 287.643 469.597 287.09 469.597C287.045 469.597 286.979 469.597 286.935 469.597ZM289.016 451.949C288.418 451.903 287.975 451.349 288.02 450.754C288.086 450.134 288.618 449.691 289.238 449.757C289.835 449.801 290.278 450.333 290.234 450.953C290.168 451.529 289.68 451.949 289.127 451.949C289.083 451.949 289.06 451.949 289.016 451.949ZM290.699 434.257C290.079 434.191 289.636 433.637 289.703 433.039C289.769 432.419 290.323 431.976 290.943 432.065C291.54 432.109 291.983 432.663 291.917 433.283C291.85 433.836 291.363 434.257 290.81 434.257C290.765 434.257 290.721 434.257 290.699 434.257ZM293.268 416.695C292.648 416.563 292.271 415.967 292.404 415.367C292.537 414.791 293.113 414.393 293.711 414.525C294.308 414.658 294.707 415.234 294.574 415.832C294.463 416.363 293.998 416.718 293.489 416.718C293.4 416.72 293.334 416.695 293.268 416.695ZM298.183 399.648C297.608 399.424 297.342 398.782 297.586 398.208C297.807 397.655 298.471 397.367 299.025 397.61C299.601 397.852 299.866 398.494 299.623 399.07C299.446 399.49 299.025 399.736 298.604 399.736C298.449 399.736 298.316 399.712 298.183 399.648ZM306.819 384.236C306.354 383.86 306.266 383.151 306.642 382.686C307.041 382.199 307.727 382.11 308.214 382.509C308.679 382.885 308.768 383.57 308.389 384.059C308.168 384.325 307.836 384.48 307.526 384.48C307.284 384.48 307.041 384.391 306.819 384.236ZM509.383 382.442C509.383 382.442 509.383 382.442 509.383 382.42C508.785 382.398 508.32 381.867 508.342 381.267C508.387 380.649 508.896 380.184 509.516 380.226C510.114 380.248 510.579 380.78 510.557 381.38C510.512 381.975 510.025 382.44 509.45 382.44C509.427 382.442 509.405 382.442 509.383 382.442ZM526.101 381.267C526.035 380.669 526.5 380.137 527.12 380.095C527.717 380.049 528.249 380.494 528.293 381.114C528.337 381.712 527.895 382.243 527.275 382.285C527.253 382.285 527.208 382.285 527.186 382.285C526.61 382.285 526.123 381.867 526.101 381.267ZM491.624 380.494C491.027 380.383 490.606 379.83 490.717 379.232C490.805 378.614 491.381 378.213 491.979 378.302C492.577 378.39 492.997 378.966 492.887 379.564C492.82 380.117 492.333 380.494 491.802 380.494C491.735 380.494 491.691 380.494 491.624 380.494ZM543.638 378.7C543.483 378.1 543.86 377.505 544.458 377.35C545.033 377.195 545.631 377.571 545.786 378.147C545.941 378.745 545.565 379.342 544.989 379.495C544.9 379.517 544.812 379.542 544.723 379.542C544.214 379.542 543.771 379.187 543.638 378.7ZM474.154 376.927C473.556 376.774 473.179 376.174 473.334 375.598C473.467 375.002 474.065 374.624 474.663 374.779C475.261 374.914 475.637 375.509 475.482 376.11C475.349 376.617 474.907 376.951 474.397 376.951C474.331 376.951 474.242 376.951 474.154 376.927ZM560.401 372.899C560.135 372.345 560.356 371.681 560.91 371.415C561.441 371.15 562.106 371.369 562.371 371.922C562.659 372.476 562.416 373.14 561.884 373.406C561.707 373.472 561.552 373.517 561.397 373.517C560.976 373.517 560.578 373.297 560.401 372.899ZM456.949 372.39C456.949 372.39 456.949 372.39 456.949 372.367C456.351 372.212 456.019 371.592 456.174 371.017C456.351 370.419 456.949 370.087 457.546 370.242C458.122 370.419 458.476 371.017 458.299 371.615C458.166 372.102 457.724 372.409 457.236 372.409C457.126 372.409 457.037 372.409 456.949 372.39ZM319.463 371.836C319.109 371.349 319.219 370.64 319.729 370.286H319.706C320.216 369.934 320.902 370.045 321.256 370.552C321.611 371.041 321.5 371.725 321.013 372.08C321.013 372.08 321.013 372.08 321.013 372.102C320.814 372.237 320.592 372.301 320.371 372.301C320.016 372.301 319.684 372.146 319.463 371.836ZM439.854 367.474C439.278 367.319 438.924 366.699 439.101 366.101C439.278 365.525 439.876 365.171 440.474 365.348C441.072 365.525 441.404 366.123 441.227 366.721C441.094 367.208 440.651 367.516 440.164 367.516C440.076 367.516 439.965 367.516 439.854 367.474ZM575.391 363.464C574.993 363.023 575.037 362.312 575.502 361.916C575.945 361.515 576.654 361.562 577.052 362.004C577.451 362.469 577.406 363.176 576.964 363.577C576.742 363.754 576.476 363.842 576.233 363.842C575.923 363.842 575.613 363.729 575.391 363.464ZM334.852 363.023C334.609 362.469 334.874 361.827 335.428 361.584C336.004 361.34 336.646 361.606 336.889 362.184C337.111 362.737 336.867 363.402 336.291 363.621C336.159 363.687 336.004 363.709 335.871 363.709C335.428 363.709 335.029 363.464 334.852 363.023ZM422.76 362.802C422.162 362.649 421.808 362.049 421.963 361.453C422.118 360.853 422.715 360.499 423.313 360.656C423.911 360.811 424.265 361.409 424.11 362.007C423.978 362.514 423.535 362.848 423.048 362.848C422.937 362.846 422.848 362.824 422.76 362.802ZM405.51 358.927C404.913 358.816 404.514 358.24 404.625 357.62C404.735 357.044 405.311 356.648 405.909 356.757C406.529 356.867 406.905 357.443 406.795 358.041C406.706 358.57 406.241 358.949 405.71 358.949C405.643 358.949 405.577 358.949 405.51 358.927ZM351.725 357.598C351.592 357 351.969 356.402 352.567 356.267H352.589C353.164 356.137 353.762 356.533 353.895 357.133C354.028 357.731 353.629 358.307 353.032 358.439C352.965 358.462 352.899 358.462 352.81 358.462C352.301 358.462 351.836 358.105 351.725 357.598ZM388.04 356.444C387.442 356.4 386.977 355.847 387.043 355.249C387.087 354.631 387.641 354.188 388.239 354.254C388.859 354.297 389.302 354.83 389.235 355.45C389.191 356.026 388.704 356.444 388.15 356.444C388.106 356.444 388.084 356.444 388.04 356.444ZM369.284 355.096C369.262 354.476 369.727 353.967 370.347 353.922C370.945 353.9 371.477 354.365 371.499 354.963C371.543 355.583 371.078 356.095 370.458 356.137C370.436 356.137 370.436 356.137 370.414 356.137C369.816 356.137 369.329 355.694 369.284 355.096ZM586.972 350.092C586.441 349.779 586.286 349.095 586.618 348.584C586.928 348.052 587.614 347.877 588.124 348.207C588.655 348.517 588.81 349.204 588.5 349.735C588.279 350.065 587.924 350.264 587.548 350.264C587.349 350.266 587.149 350.202 586.972 350.092ZM594.324 333.994C593.748 333.816 593.394 333.219 593.571 332.621C593.726 332.045 594.346 331.691 594.921 331.868C595.519 332.023 595.874 332.643 595.696 333.219C595.564 333.706 595.121 334.038 594.634 334.038C594.523 334.038 594.434 334.014 594.324 333.994ZM595.785 315.416C595.763 314.796 596.25 314.284 596.87 314.264C597.468 314.264 597.977 314.729 597.999 315.349C598.021 315.969 597.534 316.479 596.914 316.479C596.914 316.479 596.914 316.479 596.892 316.479C596.294 316.479 595.807 316.014 595.785 315.416ZM592.22 298.543C591.976 297.989 592.242 297.325 592.796 297.103C593.371 296.838 594.014 297.103 594.257 297.679C594.501 298.233 594.235 298.875 593.681 299.118C593.549 299.185 593.394 299.207 593.239 299.207C592.818 299.207 592.397 298.963 592.22 298.543Z" fill="white"/>
<path d="M1106.11 1032.66C1105.49 1032.66 1105 1032.15 1105 1031.55C1105 1030.94 1105.51 1030.45 1106.11 1030.45C1106.73 1030.45 1107.21 1030.96 1107.21 1031.55C1107.21 1032.18 1106.7 1032.66 1106.11 1032.66ZM1122.58 1029.54C1122.42 1028.94 1122.78 1028.35 1123.35 1028.19C1123.95 1028.01 1124.55 1028.37 1124.73 1028.97C1124.88 1029.54 1124.55 1030.16 1123.95 1030.32C1123.84 1030.34 1123.75 1030.36 1123.66 1030.36C1123.18 1030.36 1122.73 1030.03 1122.58 1029.54ZM1088.28 1029.94C1087.7 1029.76 1087.37 1029.14 1087.55 1028.54C1087.75 1027.97 1088.37 1027.64 1088.94 1027.84C1089.52 1028.01 1089.85 1028.63 1089.68 1029.21C1089.52 1029.7 1089.08 1029.98 1088.61 1029.98C1088.5 1029.98 1088.39 1029.96 1088.28 1029.94ZM1138.9 1022.7C1138.57 1022.17 1138.72 1021.48 1139.25 1021.17C1139.76 1020.84 1140.45 1020.99 1140.78 1021.5C1141.09 1022.03 1140.94 1022.7 1140.43 1023.03C1140.25 1023.14 1140.05 1023.21 1139.83 1023.21C1139.48 1023.21 1139.12 1023.03 1138.9 1022.7ZM1072.38 1021.33C1071.92 1020.92 1071.87 1020.22 1072.27 1019.75C1072.67 1019.29 1073.36 1019.24 1073.82 1019.64C1074.29 1020.02 1074.33 1020.73 1073.95 1021.19C1073.73 1021.46 1073.42 1021.59 1073.09 1021.59C1072.85 1021.59 1072.58 1021.5 1072.38 1021.33ZM1152.98 1011.94C1152.56 1011.49 1152.58 1010.78 1153.03 1010.36C1153.47 1009.94 1154.18 1009.96 1154.6 1010.41C1155.02 1010.85 1155 1011.56 1154.55 1011.98C1154.33 1012.18 1154.07 1012.29 1153.8 1012.29C1153.49 1012.29 1153.2 1012.16 1152.98 1011.94ZM1165.03 998.893C1164.54 998.516 1164.45 997.81 1164.83 997.345C1165.23 996.856 1165.91 996.767 1166.4 997.168C1166.87 997.544 1166.95 998.228 1166.58 998.718C1166.36 998.981 1166.02 999.136 1165.71 999.136C1165.47 999.139 1165.23 999.05 1165.03 998.893ZM1175.44 984.524C1174.93 984.17 1174.77 983.481 1175.13 982.974H1175.1C1175.46 982.465 1176.14 982.332 1176.65 982.664C1177.16 982.994 1177.3 983.683 1176.96 984.19C1176.74 984.522 1176.41 984.699 1176.03 984.699C1175.83 984.701 1175.61 984.635 1175.44 984.524ZM1184.87 969.465C1184.36 969.155 1184.18 968.47 1184.49 967.959C1184.8 967.428 1185.49 967.25 1186.02 967.583C1186.55 967.893 1186.71 968.557 1186.4 969.088C1186.2 969.443 1185.82 969.62 1185.44 969.62C1185.24 969.622 1185.05 969.578 1184.87 969.465ZM1194.04 954.255C1193.5 953.942 1193.35 953.258 1193.66 952.727C1193.99 952.22 1194.68 952.04 1195.19 952.373C1195.72 952.685 1195.87 953.369 1195.56 953.9C1195.34 954.233 1194.99 954.407 1194.61 954.407C1194.41 954.407 1194.21 954.365 1194.04 954.255ZM1426.89 947.235C1426.27 947.258 1425.76 946.768 1425.74 946.173C1425.72 945.553 1426.18 945.043 1426.8 945.021C1427.42 944.997 1427.93 945.462 1427.95 946.082C1427.98 946.682 1427.51 947.211 1426.89 947.235ZM1408.98 946.104C1408.38 946.015 1407.96 945.44 1408.07 944.844C1408.16 944.244 1408.71 943.825 1409.33 943.914C1409.93 944.025 1410.35 944.578 1410.24 945.196C1410.17 945.727 1409.69 946.128 1409.15 946.128C1409.09 946.128 1409.04 946.128 1408.98 946.104ZM1443.23 943.447C1443.03 942.871 1443.37 942.253 1443.94 942.052C1444.52 941.875 1445.16 942.185 1445.34 942.76C1445.54 943.36 1445.2 943.978 1444.63 944.155C1444.52 944.202 1444.41 944.222 1444.3 944.222C1443.83 944.224 1443.39 943.914 1443.23 943.447ZM1391.55 942.076C1390.95 941.899 1390.62 941.279 1390.82 940.703C1390.97 940.103 1391.59 939.773 1392.19 939.95C1392.77 940.125 1393.1 940.745 1392.92 941.321C1392.79 941.81 1392.35 942.118 1391.86 942.118C1391.77 942.12 1391.66 942.098 1391.55 942.076ZM1203.73 939.372C1203.25 939.018 1203.14 938.332 1203.49 937.847V937.825C1203.84 937.335 1204.53 937.225 1205.02 937.581C1205.53 937.935 1205.64 938.622 1205.28 939.131C1205.28 939.131 1205.28 939.131 1205.28 939.107C1205.06 939.419 1204.73 939.572 1204.38 939.572C1204.15 939.572 1203.93 939.507 1203.73 939.372ZM1374.74 935.942C1374.19 935.699 1373.92 935.059 1374.17 934.481C1374.41 933.927 1375.05 933.662 1375.63 933.905C1376.18 934.149 1376.45 934.791 1376.21 935.345C1376.03 935.785 1375.63 936.031 1375.19 936.031C1375.05 936.031 1374.9 936.009 1374.74 935.942ZM1459.04 935.566C1458.67 935.079 1458.75 934.392 1459.24 934.016C1459.73 933.64 1460.42 933.728 1460.79 934.215C1461.17 934.705 1461.08 935.389 1460.59 935.765C1460.39 935.92 1460.17 935.989 1459.93 935.989C1459.6 935.987 1459.26 935.854 1459.04 935.566ZM1358.67 928.192C1358.14 927.882 1357.94 927.22 1358.23 926.687C1358.51 926.133 1359.18 925.934 1359.73 926.222L1359.71 926.244C1360.26 926.532 1360.46 927.196 1360.17 927.727C1359.97 928.104 1359.6 928.303 1359.2 928.303C1359.02 928.301 1358.85 928.281 1358.67 928.192ZM1214.65 925.356C1214.19 924.957 1214.14 924.273 1214.54 923.808C1214.96 923.343 1215.65 923.299 1216.11 923.695C1216.58 924.116 1216.6 924.827 1216.2 925.267C1215.98 925.511 1215.69 925.646 1215.38 925.646C1215.12 925.646 1214.85 925.557 1214.65 925.356ZM1471.27 922.812C1470.73 922.48 1470.6 921.793 1470.93 921.284C1471.27 920.752 1471.95 920.62 1472.46 920.954C1472.97 921.284 1473.13 921.972 1472.79 922.48C1472.57 922.812 1472.22 922.989 1471.86 922.989C1471.64 922.989 1471.44 922.922 1471.27 922.812ZM1343.06 919.712C1343.06 919.712 1343.06 919.712 1343.06 919.734C1342.53 919.424 1342.3 918.762 1342.61 918.228C1342.9 917.674 1343.57 917.475 1344.1 917.785C1344.65 918.073 1344.85 918.74 1344.56 919.269C1344.34 919.645 1343.97 919.847 1343.59 919.847C1343.41 919.845 1343.21 919.82 1343.06 919.712ZM1227.23 912.869C1226.83 912.382 1226.92 911.696 1227.38 911.297C1227.85 910.921 1228.56 910.987 1228.93 911.452C1229.33 911.917 1229.26 912.624 1228.78 913.024C1228.58 913.177 1228.33 913.266 1228.07 913.266C1227.76 913.268 1227.45 913.135 1227.23 912.869ZM1327.31 911.563C1326.78 911.297 1326.54 910.633 1326.83 910.079C1327.09 909.526 1327.76 909.302 1328.29 909.57H1328.31C1328.84 909.836 1329.09 910.5 1328.8 911.054C1328.62 911.455 1328.22 911.674 1327.8 911.674C1327.65 911.674 1327.49 911.652 1327.31 911.563ZM1478.9 906.869C1478.33 906.692 1478 906.072 1478.2 905.474C1478.37 904.898 1478.99 904.566 1479.57 904.765C1480.17 904.942 1480.48 905.562 1480.3 906.138C1480.14 906.625 1479.7 906.913 1479.24 906.913C1479.13 906.911 1479.02 906.891 1478.9 906.869ZM1311.19 904.344C1310.62 904.121 1310.35 903.479 1310.57 902.905C1310.8 902.329 1311.44 902.064 1312.01 902.285C1312.59 902.509 1312.85 903.151 1312.63 903.724C1312.46 904.167 1312.04 904.433 1311.61 904.433C1311.46 904.433 1311.33 904.411 1311.19 904.344ZM1241.86 902.883C1241.6 902.352 1241.82 901.687 1242.35 901.399C1242.9 901.134 1243.57 901.353 1243.86 901.887C1244.12 902.44 1243.9 903.104 1243.35 903.37C1243.19 903.459 1243.04 903.505 1242.86 903.505C1242.46 903.503 1242.06 903.282 1241.86 902.883ZM1294.45 898.875C1293.88 898.742 1293.52 898.144 1293.66 897.547C1293.81 896.946 1294.41 896.594 1295.01 896.749V896.727C1295.58 896.882 1295.96 897.48 1295.8 898.078C1295.69 898.585 1295.23 898.919 1294.74 898.919C1294.65 898.919 1294.54 898.897 1294.45 898.875ZM1258.47 896.727C1258.34 896.129 1258.71 895.532 1259.33 895.421H1259.31C1259.93 895.286 1260.51 895.664 1260.64 896.284C1260.75 896.862 1260.38 897.458 1259.78 897.591C1259.69 897.591 1259.62 897.615 1259.56 897.615C1259.05 897.613 1258.58 897.259 1258.47 896.727ZM1277.16 896.262C1276.54 896.218 1276.08 895.709 1276.1 895.089C1276.12 894.493 1276.65 894.006 1277.27 894.048C1277.87 894.07 1278.33 894.579 1278.31 895.202C1278.29 895.799 1277.8 896.262 1277.2 896.262C1277.18 896.262 1277.18 896.262 1277.16 896.262ZM1482.93 889.597C1482.31 889.486 1481.92 888.933 1482 888.335C1482.09 887.715 1482.67 887.316 1483.27 887.405C1483.86 887.494 1484.29 888.047 1484.2 888.667C1484.11 889.196 1483.64 889.597 1483.09 889.597C1483.05 889.597 1482.98 889.597 1482.93 889.597ZM1485.02 871.949C1484.42 871.903 1483.98 871.349 1484.02 870.754C1484.09 870.134 1484.62 869.691 1485.24 869.757C1485.84 869.801 1486.28 870.333 1486.23 870.953C1486.17 871.529 1485.68 871.949 1485.13 871.949C1485.08 871.949 1485.06 871.949 1485.02 871.949ZM1486.7 854.257C1486.08 854.191 1485.64 853.637 1485.7 853.039C1485.77 852.419 1486.32 851.976 1486.94 852.065C1487.54 852.109 1487.98 852.663 1487.92 853.283C1487.85 853.836 1487.36 854.257 1486.81 854.257C1486.77 854.257 1486.72 854.257 1486.7 854.257ZM1489.27 836.695C1488.65 836.563 1488.27 835.967 1488.4 835.367C1488.54 834.791 1489.11 834.393 1489.71 834.525C1490.31 834.658 1490.71 835.234 1490.57 835.832C1490.46 836.363 1490 836.718 1489.49 836.718C1489.4 836.72 1489.33 836.695 1489.27 836.695ZM1494.18 819.648C1493.61 819.424 1493.34 818.782 1493.59 818.208C1493.81 817.655 1494.47 817.367 1495.02 817.61C1495.6 817.852 1495.87 818.494 1495.62 819.07C1495.45 819.49 1495.02 819.736 1494.6 819.736C1494.45 819.736 1494.32 819.712 1494.18 819.648ZM1502.82 804.236C1502.35 803.86 1502.27 803.151 1502.64 802.686C1503.04 802.199 1503.73 802.11 1504.21 802.509C1504.68 802.885 1504.77 803.57 1504.39 804.059C1504.17 804.325 1503.84 804.48 1503.53 804.48C1503.28 804.48 1503.04 804.391 1502.82 804.236ZM1705.38 802.442C1705.38 802.442 1705.38 802.442 1705.38 802.42C1704.79 802.398 1704.32 801.867 1704.34 801.267C1704.39 800.649 1704.9 800.184 1705.52 800.226C1706.11 800.248 1706.58 800.78 1706.56 801.38C1706.51 801.975 1706.03 802.44 1705.45 802.44C1705.43 802.442 1705.41 802.442 1705.38 802.442ZM1722.1 801.267C1722.03 800.669 1722.5 800.137 1723.12 800.095C1723.72 800.049 1724.25 800.494 1724.29 801.114C1724.34 801.712 1723.89 802.243 1723.27 802.285C1723.25 802.285 1723.21 802.285 1723.19 802.285C1722.61 802.285 1722.12 801.867 1722.1 801.267ZM1687.62 800.494C1687.03 800.383 1686.61 799.83 1686.72 799.232C1686.81 798.614 1687.38 798.213 1687.98 798.302C1688.58 798.39 1689 798.966 1688.89 799.564C1688.82 800.117 1688.33 800.494 1687.8 800.494C1687.74 800.494 1687.69 800.494 1687.62 800.494ZM1739.64 798.7C1739.48 798.1 1739.86 797.505 1740.46 797.35C1741.03 797.195 1741.63 797.571 1741.79 798.147C1741.94 798.745 1741.56 799.342 1740.99 799.495C1740.9 799.517 1740.81 799.542 1740.72 799.542C1740.21 799.542 1739.77 799.187 1739.64 798.7ZM1670.15 796.927C1669.56 796.774 1669.18 796.174 1669.33 795.598C1669.47 795.002 1670.07 794.624 1670.66 794.779C1671.26 794.914 1671.64 795.509 1671.48 796.11C1671.35 796.617 1670.91 796.951 1670.4 796.951C1670.33 796.951 1670.24 796.951 1670.15 796.927ZM1756.4 792.899C1756.13 792.345 1756.36 791.681 1756.91 791.415C1757.44 791.15 1758.11 791.369 1758.37 791.922C1758.66 792.476 1758.42 793.14 1757.88 793.406C1757.71 793.472 1757.55 793.517 1757.4 793.517C1756.98 793.517 1756.58 793.297 1756.4 792.899ZM1652.95 792.39C1652.95 792.39 1652.95 792.39 1652.95 792.367C1652.35 792.212 1652.02 791.592 1652.17 791.017C1652.35 790.419 1652.95 790.087 1653.55 790.242C1654.12 790.419 1654.48 791.017 1654.3 791.615C1654.17 792.102 1653.72 792.409 1653.24 792.409C1653.13 792.409 1653.04 792.409 1652.95 792.39ZM1515.46 791.836C1515.11 791.349 1515.22 790.64 1515.73 790.286H1515.71C1516.22 789.934 1516.9 790.045 1517.26 790.552C1517.61 791.041 1517.5 791.725 1517.01 792.08C1517.01 792.08 1517.01 792.08 1517.01 792.102C1516.81 792.237 1516.59 792.301 1516.37 792.301C1516.02 792.301 1515.68 792.146 1515.46 791.836ZM1635.85 787.474C1635.28 787.319 1634.92 786.699 1635.1 786.101C1635.28 785.525 1635.88 785.171 1636.47 785.348C1637.07 785.525 1637.4 786.123 1637.23 786.721C1637.09 787.208 1636.65 787.516 1636.16 787.516C1636.08 787.516 1635.96 787.516 1635.85 787.474ZM1771.39 783.464C1770.99 783.023 1771.04 782.312 1771.5 781.916C1771.94 781.515 1772.65 781.562 1773.05 782.004C1773.45 782.469 1773.41 783.176 1772.96 783.577C1772.74 783.754 1772.48 783.842 1772.23 783.842C1771.92 783.842 1771.61 783.729 1771.39 783.464ZM1530.85 783.023C1530.61 782.469 1530.87 781.827 1531.43 781.584C1532 781.34 1532.65 781.606 1532.89 782.184C1533.11 782.737 1532.87 783.402 1532.29 783.621C1532.16 783.687 1532 783.709 1531.87 783.709C1531.43 783.709 1531.03 783.464 1530.85 783.023ZM1618.76 782.802C1618.16 782.649 1617.81 782.049 1617.96 781.453C1618.12 780.853 1618.72 780.499 1619.31 780.656C1619.91 780.811 1620.27 781.409 1620.11 782.007C1619.98 782.514 1619.53 782.848 1619.05 782.848C1618.94 782.846 1618.85 782.824 1618.76 782.802ZM1601.51 778.927C1600.91 778.816 1600.51 778.24 1600.62 777.62C1600.74 777.044 1601.31 776.648 1601.91 776.757C1602.53 776.867 1602.91 777.443 1602.79 778.041C1602.71 778.57 1602.24 778.949 1601.71 778.949C1601.64 778.949 1601.58 778.949 1601.51 778.927ZM1547.73 777.598C1547.59 777 1547.97 776.402 1548.57 776.267H1548.59C1549.16 776.137 1549.76 776.533 1549.9 777.133C1550.03 777.731 1549.63 778.307 1549.03 778.439C1548.97 778.462 1548.9 778.462 1548.81 778.462C1548.3 778.462 1547.84 778.105 1547.73 777.598ZM1584.04 776.444C1583.44 776.4 1582.98 775.847 1583.04 775.249C1583.09 774.631 1583.64 774.188 1584.24 774.254C1584.86 774.297 1585.3 774.83 1585.24 775.45C1585.19 776.026 1584.7 776.444 1584.15 776.444C1584.11 776.444 1584.08 776.444 1584.04 776.444ZM1565.28 775.096C1565.26 774.476 1565.73 773.967 1566.35 773.922C1566.95 773.9 1567.48 774.365 1567.5 774.963C1567.54 775.583 1567.08 776.095 1566.46 776.137C1566.44 776.137 1566.44 776.137 1566.41 776.137C1565.82 776.137 1565.33 775.694 1565.28 775.096ZM1782.97 770.092C1782.44 769.779 1782.29 769.095 1782.62 768.584C1782.93 768.052 1783.61 767.877 1784.12 768.207C1784.66 768.517 1784.81 769.204 1784.5 769.735C1784.28 770.065 1783.92 770.264 1783.55 770.264C1783.35 770.266 1783.15 770.202 1782.97 770.092ZM1790.32 753.994C1789.75 753.816 1789.39 753.219 1789.57 752.621C1789.73 752.045 1790.35 751.691 1790.92 751.868C1791.52 752.023 1791.87 752.643 1791.7 753.219C1791.56 753.706 1791.12 754.038 1790.63 754.038C1790.52 754.038 1790.43 754.014 1790.32 753.994ZM1791.79 735.416C1791.76 734.796 1792.25 734.284 1792.87 734.264C1793.47 734.264 1793.98 734.729 1794 735.349C1794.02 735.969 1793.53 736.479 1792.91 736.479C1792.91 736.479 1792.91 736.479 1792.89 736.479C1792.29 736.479 1791.81 736.014 1791.79 735.416ZM1788.22 718.543C1787.98 717.989 1788.24 717.325 1788.8 717.103C1789.37 716.838 1790.01 717.103 1790.26 717.679C1790.5 718.233 1790.23 718.875 1789.68 719.118C1789.55 719.185 1789.39 719.207 1789.24 719.207C1788.82 719.207 1788.4 718.963 1788.22 718.543Z" fill="white"/>
<g opacity="0.4" filter="url(#filter0_f_410_34)">
<path d="M283.593 511.504C475.495 679.045 235.978 793.434 133.553 820.879C31.1274 848.323 -134.926 960.628 -123.544 620.596C-139.446 439.542 -144.573 331.694 -42.1474 304.25C60.2781 276.805 128.954 396.095 283.593 511.504Z" fill="url(#paint0_radial_410_34)"/>
</g>
<g opacity="0.4" filter="url(#filter1_f_410_34)">
<path d="M1549.14 912.878C1702.31 1046.6 1511.14 1137.9 1429.38 1159.81C1347.63 1181.71 1215.1 1271.35 1224.18 999.951C1211.49 855.441 1207.4 769.361 1289.15 747.456C1370.9 725.55 1425.71 820.763 1549.14 912.878Z" fill="url(#paint1_radial_410_34)"/>
</g>
<defs>
<filter id="filter0_f_410_34" x="-432.344" y="0.266602" width="1088.22" height="1160.38" filterUnits="userSpaceOnUse" color-interpolation-filters="sRGB">
<feFlood flood-opacity="0" result="BackgroundImageFix"/>
<feBlend mode="normal" in="SourceGraphic" in2="BackgroundImageFix" result="shape"/>
<feGaussianBlur stdDeviation="150" result="effect1_foregroundBlur_410_34"/>
</filter>
<filter id="filter1_f_410_34" x="917.156" y="444.277" width="989.676" height="1047.28" filterUnits="userSpaceOnUse" color-interpolation-filters="sRGB">
<feFlood flood-opacity="0" result="BackgroundImageFix"/>
<feBlend mode="normal" in="SourceGraphic" in2="BackgroundImageFix" result="shape"/>
<feGaussianBlur stdDeviation="150" result="effect1_foregroundBlur_410_34"/>
</filter>
<radialGradient id="paint0_radial_410_34" cx="0" cy="0" r="1" gradientUnits="userSpaceOnUse" gradientTransform="translate(47.0247 537.622) rotate(73.0604) scale(251.144 224.064)">
<stop stop-color="#3A76D1"/>
<stop offset="1" stop-color="#4868D8" stop-opacity="0"/>
</radialGradient>
<radialGradient id="paint1_radial_410_34" cx="0" cy="0" r="1" gradientUnits="userSpaceOnUse" gradientTransform="translate(1360.32 933.725) rotate(73.0604) scale(200.453 178.839)">
<stop stop-color="#3A76D1"/>
<stop offset="1" stop-color="#4868D8" stop-opacity="0"/>
</radialGradient>
</defs>
</svg>
