<svg width="38" height="38" viewBox="0 0 38 38" fill="none" xmlns="http://www.w3.org/2000/svg">
<path d="M18.9967 4.97057C13.2476 4.97057 7.78829 4.45916 5.70304 9.81082C4.8417 12.0212 4.96679 14.8917 4.96679 19.0021C4.96679 22.6089 4.8512 25.9988 5.70304 28.1917C7.78354 33.5466 13.2872 33.0336 18.9935 33.0336C24.4988 33.0336 30.175 33.6067 32.2856 28.1917C33.1485 25.9592 33.0219 23.1314 33.0219 19.0021C33.0219 13.5206 33.3243 9.98182 30.6659 7.32499C27.9742 4.63332 24.3341 4.97057 18.9904 4.97057H18.9967ZM17.7395 7.49915C29.7317 7.48015 31.258 6.14699 30.4157 24.6672C30.1165 31.2175 25.129 30.4986 18.9983 30.4986C7.81995 30.4986 7.49854 30.1788 7.49854 18.9957C7.49854 7.68282 8.3852 7.50549 17.7395 7.49599V7.49915ZM26.4859 9.82824C25.5565 9.82824 24.8028 10.5819 24.8028 11.5113C24.8028 12.4407 25.5565 13.1944 26.4859 13.1944C27.4153 13.1944 28.169 12.4407 28.169 11.5113C28.169 10.5819 27.4153 9.82824 26.4859 9.82824ZM18.9967 11.7963C15.0178 11.7963 11.7925 15.0232 11.7925 19.0021C11.7925 22.981 15.0178 26.2062 18.9967 26.2062C22.9756 26.2062 26.1993 22.981 26.1993 19.0021C26.1993 15.0232 22.9756 11.7963 18.9967 11.7963ZM18.9967 14.3249C25.1796 14.3249 25.1875 23.6792 18.9967 23.6792C12.8154 23.6792 12.8059 14.3249 18.9967 14.3249Z" fill="url(#paint0_linear_81_219)"/>
<defs>
<linearGradient id="paint0_linear_81_219" x1="6.84524" y1="31.2207" x2="32.8733" y2="8.70712" gradientUnits="userSpaceOnUse">
<stop stop-color="#FFDD55"/>
<stop offset="0.5" stop-color="#FF543E"/>
<stop offset="1" stop-color="#C837AB"/>
</linearGradient>
</defs>
</svg>
