<svg width="39" height="39" viewBox="0 0 39 39" fill="none" xmlns="http://www.w3.org/2000/svg">
<path d="M31.587 11.9867C30.7242 12.4381 29.4245 12.6467 28.9936 12.7068C28.9901 12.686 28.9865 12.666 28.9829 12.6461C30.4477 11.7401 30.8961 10.0342 30.8961 10.0342C29.9889 10.5528 29.1894 10.8406 28.5872 11.0001C28.2486 11.0908 27.9722 11.1399 27.7734 11.1673C26.8605 10.2312 25.5858 9.65039 24.1749 9.65039C21.3988 9.65039 19.1478 11.9007 19.1478 14.6777C19.1478 14.7777 19.1505 14.8771 19.157 14.9756C19.1704 15.2163 19.2011 15.4528 19.2484 15.6828C17.9047 15.6629 13.0544 15.2508 9.03512 10.582C9.03512 10.582 6.79697 14.487 10.5597 17.1545C10.5597 17.1545 9.03512 17.1069 8.22579 16.5353C8.22579 16.5353 7.98775 20.2981 12.3215 21.4883C12.3215 21.4883 10.7978 21.8697 10.0352 21.5362C10.0352 21.5362 10.7975 24.7747 14.6076 25.0133C14.6076 25.0133 11.8749 27.5151 7.4126 27.155C9.6073 28.5446 12.2093 29.3488 14.9991 29.3488C22.8433 29.3488 29.2025 22.99 29.2025 15.1458C29.2025 15.0479 29.2016 14.95 29.1995 14.8521C29.2016 14.7941 29.2025 14.7363 29.2025 14.6777C29.2025 14.637 29.2016 14.5962 29.201 14.5554C30.6513 13.589 31.587 11.9867 31.587 11.9867V11.9867Z" fill="url(#paint0_linear_81_213)"/>
<defs>
<linearGradient id="paint0_linear_81_213" x1="15.439" y1="12.42" x2="19.7591" y2="23.7631" gradientUnits="userSpaceOnUse">
<stop stop-color="#00C3FF"/>
<stop offset="1" stop-color="#00B0ED"/>
</linearGradient>
</defs>
</svg>
