<?xml version="1.0" standalone="no"?>
<!DOCTYPE svg PUBLIC "-//W3C//DTD SVG 20010904//EN"
 "http://www.w3.org/TR/2001/REC-SVG-20010904/DTD/svg10.dtd">
<svg version="1.0" xmlns="http://www.w3.org/2000/svg"
 width="104.000000pt" height="104.000000pt" viewBox="0 0 104.000000 104.000000"
 preserveAspectRatio="xMidYMid meet">
<metadata>
Created by potrace 1.14, written by Peter Selinger 2001-2017
</metadata>
<g transform="translate(0.000000,104.000000) scale(0.100000,-0.100000)"
fill="#000000" stroke="none">
<path d="M338 949 c-10 -5 -18 -17 -18 -24 0 -10 -11 -15 -33 -15 -64 0 -70
-13 -70 -148 0 -81 -4 -122 -11 -123 -6 -1 -20 -1 -31 0 -35 2 -82 -35 -91
-71 -13 -50 -11 -53 21 -50 48 5 64 -15 71 -88 3 -36 13 -77 20 -92 49 -95
179 -133 269 -79 20 12 38 21 39 21 2 0 4 -23 5 -52 1 -63 22 -92 64 -85 20 3
31 -1 35 -12 8 -22 33 -39 51 -36 9 2 21 4 27 4 6 1 17 12 24 25 10 20 18 24
40 20 17 -4 32 0 43 11 18 17 19 24 20 172 l1 92 36 -1 c48 0 76 19 95 65 20
49 20 47 -17 47 -55 0 -73 24 -77 104 -3 61 -12 83 -44 118 -60 64 -157 81
-233 41 l-42 -21 -4 53 c-5 64 -20 85 -60 85 -20 0 -37 8 -50 25 -20 26 -51
31 -80 14z m64 -33 c4 -6 8 -74 8 -151 0 -102 3 -136 11 -128 7 7 11 53 10
121 0 84 3 113 14 122 18 15 55 3 56 -18 0 -9 1 -135 1 -279 2 -277 1 -280
-46 -305 -62 -33 -134 -26 -193 18 -44 33 -54 56 -63 138 -9 76 -30 106 -76
106 -21 0 -22 2 -13 29 7 19 21 33 39 39 16 6 30 9 32 8 1 -2 15 -6 31 -10
l27 -6 0 134 c0 143 7 165 50 151 21 -7 21 -3 24 -162 0 -45 4 -85 9 -89 9
-10 9 -10 12 150 2 100 6 140 15 146 15 9 41 2 52 -14z m346 -141 c49 -25 79
-78 86 -155 4 -53 10 -69 31 -87 14 -13 35 -23 46 -23 10 0 19 -7 19 -15 0
-16 -34 -54 -50 -56 -5 -1 -16 -2 -22 -3 -7 -1 -23 1 -35 6 -13 4 -24 4 -24 0
-1 -4 -3 -63 -4 -133 -1 -69 -5 -130 -9 -137 -11 -17 -53 -15 -60 4 -3 9 -6
65 -6 125 0 66 -4 109 -10 109 -6 0 -10 -53 -10 -140 0 -127 -2 -140 -19 -150
-25 -13 -27 -13 -45 6 -13 13 -16 41 -16 155 0 91 -4 138 -10 134 -6 -4 -10
-57 -10 -125 l0 -120 -26 -6 c-49 -13 -47 -28 -45 333 l1 251 53 27 c58 29
106 29 165 0z"/>
</g>
</svg>
