<svg width="14" height="14" viewBox="0 0 14 14" fill="none" xmlns="http://www.w3.org/2000/svg">
<g clip-path="url(#clip0_68_3184)">
<path d="M12.2769 1.06274H2.41155C2.04657 1.06274 1.75049 1.35883 1.75049 1.7238C1.75049 2.08878 2.04657 2.38486 2.41155 2.38486H10.6809L1.94415 11.1218C1.686 11.3799 1.686 11.7984 1.94415 12.0566L2.12093 11.8798C2.20129 11.9602 2.30632 12.0002 2.41155 12.0002C2.51678 12.0002 2.62201 11.9602 2.70216 11.8798L2.87894 12.0566L2.87906 12.0565C2.8791 12.0564 2.87913 12.0564 2.87917 12.0564L11.6159 3.31965V11.5892C11.6159 11.9542 11.912 12.2502 12.2769 12.2502C12.6419 12.2502 12.938 11.9542 12.938 11.5892V1.7238C12.938 1.35883 12.6419 1.06274 12.2769 1.06274Z" fill="currentColor" stroke="currentColor" stroke-width="0.5"/>
</g>
<defs>
<clipPath id="clip0_68_3184">
<rect width="14" height="14" fill="white" transform="translate(0 0.000305176)"/>
</clipPath>
</defs>
</svg>
