<svg width="1282" height="1732" viewBox="0 0 1282 1732" fill="none" xmlns="http://www.w3.org/2000/svg">
<path d="M528.106 635.661C527.486 635.661 526.998 635.154 526.998 634.554C526.998 633.936 527.508 633.446 528.106 633.446C528.726 633.446 529.213 633.956 529.213 634.554C529.213 635.176 528.703 635.661 528.106 635.661ZM544.58 632.541C544.425 631.943 544.779 631.345 545.355 631.19C545.953 631.013 546.551 631.367 546.728 631.965C546.883 632.543 546.551 633.161 545.953 633.316C545.842 633.338 545.754 633.36 545.665 633.36C545.178 633.358 544.735 633.028 544.58 632.541ZM510.28 632.939C509.705 632.762 509.373 632.142 509.55 631.544C509.749 630.969 510.369 630.637 510.945 630.836C511.52 631.013 511.853 631.633 511.675 632.209C511.52 632.696 511.078 632.984 510.613 632.984C510.502 632.981 510.391 632.962 510.28 632.939ZM560.899 625.696C560.567 625.167 560.722 624.479 561.254 624.171C561.763 623.839 562.449 623.994 562.781 624.501C563.091 625.032 562.936 625.696 562.427 626.031C562.25 626.141 562.051 626.208 561.829 626.208C561.475 626.208 561.121 626.031 560.899 625.696ZM494.382 624.326C493.917 623.925 493.873 623.219 494.271 622.754C494.67 622.286 495.356 622.244 495.821 622.641C496.286 623.017 496.33 623.726 495.954 624.191C495.733 624.456 495.423 624.589 495.09 624.589C494.847 624.589 494.581 624.501 494.382 624.326ZM574.982 614.937C574.562 614.494 574.584 613.784 575.027 613.365C575.469 612.944 576.178 612.964 576.599 613.409C577.019 613.852 576.997 614.563 576.554 614.981C576.333 615.181 576.067 615.294 575.802 615.294C575.492 615.291 575.204 615.159 574.982 614.937ZM587.028 601.893C586.541 601.516 586.452 600.81 586.829 600.345C587.227 599.856 587.914 599.767 588.401 600.168C588.866 600.544 588.954 601.228 588.578 601.718C588.357 601.981 588.024 602.136 587.714 602.136C587.471 602.139 587.227 602.05 587.028 601.893ZM597.435 587.524C596.926 587.17 596.771 586.481 597.125 585.974H597.103C597.457 585.465 598.144 585.332 598.653 585.664C599.162 585.994 599.295 586.683 598.963 587.19C598.742 587.522 598.41 587.699 598.033 587.699C597.834 587.701 597.612 587.635 597.435 587.524ZM606.868 572.465C606.359 572.155 606.182 571.47 606.492 570.959C606.802 570.428 607.488 570.25 608.02 570.583C608.551 570.893 608.706 571.557 608.396 572.088C608.197 572.443 607.82 572.62 607.444 572.62C607.245 572.622 607.045 572.578 606.868 572.465ZM616.035 557.255C615.504 556.942 615.349 556.258 615.659 555.727C615.991 555.22 616.677 555.04 617.187 555.373C617.718 555.685 617.873 556.369 617.563 556.9C617.342 557.233 616.987 557.407 616.611 557.407C616.412 557.407 616.212 557.365 616.035 557.255ZM848.891 550.235C848.271 550.258 847.762 549.768 847.739 549.173C847.717 548.553 848.182 548.043 848.802 548.021C849.422 547.997 849.932 548.462 849.954 549.082C849.976 549.682 849.511 550.211 848.891 550.235ZM830.977 549.104C830.379 549.015 829.959 548.44 830.069 547.844C830.158 547.244 830.711 546.825 831.331 546.914C831.929 547.025 832.35 547.578 832.239 548.196C832.173 548.727 831.686 549.128 831.154 549.128C831.088 549.128 831.044 549.128 830.977 549.104ZM865.232 546.447C865.033 545.871 865.365 545.253 865.941 545.052C866.517 544.875 867.159 545.185 867.336 545.76C867.535 546.36 867.203 546.978 866.627 547.155C866.517 547.202 866.406 547.222 866.295 547.222C865.83 547.224 865.387 546.914 865.232 546.447ZM813.551 545.076C812.953 544.899 812.621 544.279 812.82 543.703C812.975 543.103 813.595 542.773 814.193 542.95C814.769 543.125 815.101 543.745 814.924 544.321C814.791 544.81 814.348 545.118 813.861 545.118C813.772 545.12 813.661 545.098 813.551 545.076ZM625.734 542.372C625.247 542.018 625.136 541.332 625.49 540.847V540.825C625.845 540.335 626.531 540.225 627.018 540.581C627.528 540.935 627.638 541.622 627.284 542.131C627.284 542.131 627.284 542.131 627.284 542.107C627.063 542.419 626.73 542.572 626.376 542.572C626.155 542.572 625.933 542.507 625.734 542.372ZM796.744 538.942C796.191 538.699 795.925 538.059 796.168 537.481C796.412 536.927 797.054 536.662 797.63 536.905C798.183 537.149 798.449 537.791 798.206 538.345C798.028 538.785 797.63 539.031 797.187 539.031C797.054 539.031 796.899 539.009 796.744 538.942ZM881.042 538.566C880.666 538.079 880.755 537.392 881.242 537.016C881.729 536.64 882.415 536.728 882.792 537.215C883.168 537.705 883.08 538.389 882.592 538.765C882.393 538.92 882.172 538.989 881.928 538.989C881.596 538.987 881.264 538.854 881.042 538.566ZM780.668 531.192C780.137 530.882 779.938 530.22 780.226 529.687C780.513 529.133 781.178 528.934 781.731 529.222L781.709 529.244C782.263 529.532 782.462 530.196 782.174 530.727C781.975 531.104 781.598 531.303 781.2 531.303C781.023 531.301 780.846 531.281 780.668 531.192ZM636.65 528.356C636.185 527.957 636.141 527.273 636.54 526.808C636.96 526.343 637.647 526.299 638.112 526.695C638.577 527.116 638.599 527.827 638.2 528.267C637.979 528.511 637.691 528.646 637.381 528.646C637.115 528.646 636.85 528.557 636.65 528.356ZM893.265 525.812C892.734 525.48 892.601 524.793 892.933 524.284C893.265 523.752 893.952 523.62 894.461 523.954C894.97 524.284 895.125 524.972 894.793 525.48C894.572 525.812 894.218 525.989 893.863 525.989C893.642 525.989 893.443 525.922 893.265 525.812ZM765.058 522.712C765.058 522.712 765.058 522.712 765.058 522.734C764.526 522.424 764.305 521.762 764.615 521.228C764.903 520.674 765.567 520.475 766.098 520.785C766.652 521.073 766.851 521.74 766.563 522.269C766.342 522.645 765.965 522.847 765.589 522.847C765.412 522.844 765.213 522.82 765.058 522.712ZM649.228 515.869C648.829 515.382 648.918 514.696 649.383 514.297C649.848 513.921 650.556 513.987 650.933 514.452C651.331 514.917 651.265 515.624 650.778 516.024C650.578 516.177 650.335 516.266 650.069 516.266C649.759 516.268 649.449 516.135 649.228 515.869ZM749.314 514.563C748.782 514.297 748.539 513.633 748.827 513.079C749.092 512.526 749.757 512.302 750.288 512.57H750.31C750.842 512.836 751.085 513.5 750.797 514.054C750.62 514.455 750.222 514.674 749.801 514.674C749.646 514.674 749.491 514.652 749.314 514.563ZM900.905 509.869C900.329 509.692 899.997 509.072 900.196 508.474C900.371 507.898 900.993 507.566 901.569 507.765C902.167 507.942 902.477 508.562 902.3 509.138C902.145 509.625 901.702 509.913 901.237 509.913C901.126 509.911 901.015 509.891 900.905 509.869ZM733.194 507.344C732.618 507.121 732.352 506.479 732.574 505.905C732.795 505.329 733.437 505.064 734.013 505.285C734.589 505.509 734.855 506.151 734.633 506.724C734.456 507.167 734.035 507.433 733.615 507.433C733.46 507.433 733.327 507.411 733.194 507.344ZM663.864 505.883C663.598 505.352 663.82 504.687 664.351 504.399C664.905 504.134 665.569 504.353 665.857 504.887C666.123 505.44 665.901 506.104 665.348 506.37C665.193 506.459 665.038 506.505 664.861 506.505C664.462 506.503 664.063 506.282 663.864 505.883ZM716.454 501.875C715.878 501.742 715.524 501.144 715.657 500.547C715.812 499.946 716.409 499.594 717.007 499.749V499.727C717.583 499.882 717.959 500.48 717.804 501.078C717.694 501.585 717.229 501.919 716.742 501.919C716.653 501.919 716.542 501.897 716.454 501.875ZM680.471 499.727C680.339 499.129 680.715 498.532 681.335 498.421H681.313C681.933 498.286 682.509 498.664 682.641 499.284C682.752 499.862 682.376 500.458 681.778 500.591C681.689 500.591 681.623 500.615 681.556 500.615C681.047 500.613 680.582 500.259 680.471 499.727ZM699.16 499.262C698.54 499.218 698.075 498.709 698.097 498.089C698.119 497.493 698.651 497.006 699.271 497.048C699.869 497.07 700.334 497.579 700.311 498.202C700.289 498.799 699.802 499.262 699.204 499.262C699.182 499.262 699.182 499.262 699.16 499.262ZM904.935 492.597C904.315 492.486 903.916 491.933 904.005 491.335C904.093 490.715 904.669 490.316 905.267 490.405C905.865 490.494 906.285 491.047 906.197 491.667C906.108 492.196 905.643 492.597 905.09 492.597C905.045 492.597 904.979 492.597 904.935 492.597ZM907.016 474.949C906.418 474.903 905.975 474.349 906.02 473.754C906.086 473.134 906.618 472.691 907.238 472.757C907.835 472.801 908.278 473.333 908.234 473.953C908.168 474.529 907.681 474.949 907.127 474.949C907.083 474.949 907.06 474.949 907.016 474.949ZM908.699 457.257C908.079 457.191 907.636 456.637 907.703 456.039C907.769 455.419 908.323 454.976 908.943 455.065C909.54 455.109 909.983 455.663 909.917 456.283C909.85 456.836 909.363 457.257 908.81 457.257C908.766 457.257 908.721 457.257 908.699 457.257ZM911.268 439.695C910.648 439.563 910.271 438.967 910.404 438.367C910.537 437.791 911.113 437.393 911.711 437.525C912.308 437.658 912.707 438.234 912.574 438.832C912.463 439.363 911.998 439.718 911.489 439.718C911.4 439.72 911.334 439.695 911.268 439.695ZM916.183 422.648C915.608 422.424 915.342 421.782 915.586 421.208C915.807 420.655 916.471 420.367 917.025 420.61C917.601 420.852 917.866 421.494 917.623 422.07C917.446 422.49 917.025 422.736 916.604 422.736C916.449 422.736 916.316 422.712 916.183 422.648ZM924.819 407.236C924.354 406.86 924.266 406.151 924.642 405.686C925.041 405.199 925.727 405.11 926.214 405.509C926.679 405.885 926.768 406.57 926.389 407.059C926.168 407.325 925.836 407.48 925.526 407.48C925.284 407.48 925.041 407.391 924.819 407.236ZM1127.38 405.442C1127.38 405.442 1127.38 405.442 1127.38 405.42C1126.79 405.398 1126.32 404.867 1126.34 404.267C1126.39 403.649 1126.9 403.184 1127.52 403.226C1128.11 403.248 1128.58 403.78 1128.56 404.38C1128.51 404.975 1128.03 405.44 1127.45 405.44C1127.43 405.442 1127.41 405.442 1127.38 405.442ZM1144.1 404.267C1144.03 403.669 1144.5 403.137 1145.12 403.095C1145.72 403.049 1146.25 403.494 1146.29 404.114C1146.34 404.712 1145.89 405.243 1145.27 405.285C1145.25 405.285 1145.21 405.285 1145.19 405.285C1144.61 405.285 1144.12 404.867 1144.1 404.267ZM1109.62 403.494C1109.03 403.383 1108.61 402.83 1108.72 402.232C1108.81 401.614 1109.38 401.213 1109.98 401.302C1110.58 401.39 1111 401.966 1110.89 402.564C1110.82 403.117 1110.33 403.494 1109.8 403.494C1109.74 403.494 1109.69 403.494 1109.62 403.494ZM1161.64 401.7C1161.48 401.1 1161.86 400.505 1162.46 400.35C1163.03 400.195 1163.63 400.571 1163.79 401.147C1163.94 401.745 1163.56 402.342 1162.99 402.495C1162.9 402.517 1162.81 402.542 1162.72 402.542C1162.21 402.542 1161.77 402.187 1161.64 401.7ZM1092.15 399.927C1091.56 399.774 1091.18 399.174 1091.33 398.598C1091.47 398.002 1092.07 397.624 1092.66 397.779C1093.26 397.914 1093.64 398.509 1093.48 399.11C1093.35 399.617 1092.91 399.951 1092.4 399.951C1092.33 399.951 1092.24 399.951 1092.15 399.927ZM1178.4 395.899C1178.13 395.345 1178.36 394.681 1178.91 394.415C1179.44 394.15 1180.11 394.369 1180.37 394.922C1180.66 395.476 1180.42 396.14 1179.88 396.406C1179.71 396.472 1179.55 396.517 1179.4 396.517C1178.98 396.517 1178.58 396.297 1178.4 395.899ZM1074.95 395.39C1074.95 395.39 1074.95 395.39 1074.95 395.367C1074.35 395.212 1074.02 394.592 1074.17 394.017C1074.35 393.419 1074.95 393.087 1075.55 393.242C1076.12 393.419 1076.48 394.017 1076.3 394.615C1076.17 395.102 1075.72 395.409 1075.24 395.409C1075.13 395.409 1075.04 395.409 1074.95 395.39ZM937.463 394.836C937.109 394.349 937.219 393.64 937.729 393.286H937.706C938.216 392.934 938.902 393.045 939.256 393.552C939.611 394.041 939.5 394.725 939.013 395.08C939.013 395.08 939.013 395.08 939.013 395.102C938.814 395.237 938.592 395.301 938.371 395.301C938.016 395.301 937.684 395.146 937.463 394.836ZM1057.85 390.474C1057.28 390.319 1056.92 389.699 1057.1 389.101C1057.28 388.525 1057.88 388.171 1058.47 388.348C1059.07 388.525 1059.4 389.123 1059.23 389.721C1059.09 390.208 1058.65 390.516 1058.16 390.516C1058.08 390.516 1057.96 390.516 1057.85 390.474ZM1193.39 386.464C1192.99 386.023 1193.04 385.312 1193.5 384.916C1193.94 384.515 1194.65 384.562 1195.05 385.004C1195.45 385.469 1195.41 386.176 1194.96 386.577C1194.74 386.754 1194.48 386.842 1194.23 386.842C1193.92 386.842 1193.61 386.729 1193.39 386.464ZM952.852 386.023C952.609 385.469 952.874 384.827 953.428 384.584C954.004 384.34 954.646 384.606 954.889 385.184C955.111 385.737 954.867 386.402 954.291 386.621C954.159 386.687 954.004 386.709 953.871 386.709C953.428 386.709 953.029 386.464 952.852 386.023ZM1040.76 385.802C1040.16 385.649 1039.81 385.049 1039.96 384.453C1040.12 383.853 1040.72 383.499 1041.31 383.656C1041.91 383.811 1042.27 384.409 1042.11 385.007C1041.98 385.514 1041.53 385.848 1041.05 385.848C1040.94 385.846 1040.85 385.824 1040.76 385.802ZM1023.51 381.927C1022.91 381.816 1022.51 381.24 1022.62 380.62C1022.74 380.044 1023.31 379.648 1023.91 379.757C1024.53 379.867 1024.91 380.443 1024.79 381.041C1024.71 381.57 1024.24 381.949 1023.71 381.949C1023.64 381.949 1023.58 381.949 1023.51 381.927ZM969.725 380.598C969.592 380 969.969 379.402 970.567 379.267H970.589C971.164 379.137 971.762 379.533 971.895 380.133C972.028 380.731 971.629 381.307 971.032 381.439C970.965 381.462 970.899 381.462 970.81 381.462C970.301 381.462 969.836 381.105 969.725 380.598ZM1006.04 379.444C1005.44 379.4 1004.98 378.847 1005.04 378.249C1005.09 377.631 1005.64 377.188 1006.24 377.254C1006.86 377.297 1007.3 377.83 1007.24 378.45C1007.19 379.026 1006.7 379.444 1006.15 379.444C1006.11 379.444 1006.08 379.444 1006.04 379.444ZM987.284 378.096C987.262 377.476 987.727 376.967 988.347 376.922C988.945 376.9 989.477 377.365 989.499 377.963C989.543 378.583 989.078 379.095 988.458 379.137C988.436 379.137 988.436 379.137 988.414 379.137C987.816 379.137 987.329 378.694 987.284 378.096ZM1204.97 373.092C1204.44 372.779 1204.29 372.095 1204.62 371.584C1204.93 371.052 1205.61 370.877 1206.12 371.207C1206.66 371.517 1206.81 372.204 1206.5 372.735C1206.28 373.065 1205.92 373.264 1205.55 373.264C1205.35 373.266 1205.15 373.202 1204.97 373.092ZM1212.32 356.994C1211.75 356.816 1211.39 356.219 1211.57 355.621C1211.73 355.045 1212.35 354.691 1212.92 354.868C1213.52 355.023 1213.87 355.643 1213.7 356.219C1213.56 356.706 1213.12 357.038 1212.63 357.038C1212.52 357.038 1212.43 357.014 1212.32 356.994ZM1213.79 338.416C1213.76 337.796 1214.25 337.284 1214.87 337.264C1215.47 337.264 1215.98 337.729 1216 338.349C1216.02 338.969 1215.53 339.479 1214.91 339.479C1214.91 339.479 1214.91 339.479 1214.89 339.479C1214.29 339.479 1213.81 339.014 1213.79 338.416ZM1210.22 321.543C1209.98 320.989 1210.24 320.325 1210.8 320.103C1211.37 319.838 1212.01 320.103 1212.26 320.679C1212.5 321.233 1212.23 321.875 1211.68 322.118C1211.55 322.185 1211.39 322.207 1211.24 322.207C1210.82 322.207 1210.4 321.963 1210.22 321.543Z" fill="white"/>
<g opacity="0.4" filter="url(#filter0_f_410_37)">
<path d="M923.504 469.111C1076.67 602.835 885.5 694.136 803.748 716.042C721.996 737.947 589.459 827.584 598.543 556.184C585.851 411.674 581.759 325.594 663.511 303.689C745.263 281.783 800.077 376.996 923.504 469.111Z" fill="url(#paint0_radial_410_37)"/>
</g>
<path d="M-95.8944 1731.66C-96.5144 1731.66 -97.0016 1731.15 -97.0016 1730.55C-97.0016 1729.94 -96.4923 1729.45 -95.8944 1729.45C-95.2744 1729.45 -94.7873 1729.96 -94.7873 1730.55C-94.7873 1731.18 -95.2966 1731.66 -95.8944 1731.66ZM-79.4201 1728.54C-79.5751 1727.94 -79.2208 1727.35 -78.6451 1727.19C-78.0472 1727.01 -77.4493 1727.37 -77.2722 1727.97C-77.1172 1728.54 -77.4493 1729.16 -78.0472 1729.32C-78.1579 1729.34 -78.2465 1729.36 -78.3351 1729.36C-78.8222 1729.36 -79.2651 1729.03 -79.4201 1728.54ZM-113.72 1728.94C-114.295 1728.76 -114.627 1728.14 -114.45 1727.54C-114.251 1726.97 -113.631 1726.64 -113.055 1726.84C-112.48 1727.01 -112.147 1727.63 -112.325 1728.21C-112.48 1728.7 -112.922 1728.98 -113.387 1728.98C-113.498 1728.98 -113.609 1728.96 -113.72 1728.94ZM-63.1007 1721.7C-63.4328 1721.17 -63.2778 1720.48 -62.7464 1720.17C-62.2371 1719.84 -61.5507 1719.99 -61.2185 1720.5C-60.9085 1721.03 -61.0635 1721.7 -61.5728 1722.03C-61.75 1722.14 -61.9493 1722.21 -62.1707 1722.21C-62.525 1722.21 -62.8793 1722.03 -63.1007 1721.7ZM-129.618 1720.33C-130.083 1719.92 -130.127 1719.22 -129.729 1718.75C-129.33 1718.29 -128.644 1718.24 -128.179 1718.64C-127.714 1719.02 -127.67 1719.73 -128.046 1720.19C-128.267 1720.46 -128.577 1720.59 -128.91 1720.59C-129.153 1720.59 -129.419 1720.5 -129.618 1720.33ZM-49.0178 1710.94C-49.4385 1710.49 -49.4163 1709.78 -48.9735 1709.36C-48.5306 1708.94 -47.822 1708.96 -47.4013 1709.41C-46.9806 1709.85 -47.0028 1710.56 -47.4456 1710.98C-47.667 1711.18 -47.9328 1711.29 -48.1985 1711.29C-48.5085 1711.29 -48.7963 1711.16 -49.0178 1710.94ZM-36.972 1697.89C-37.4591 1697.52 -37.5477 1696.81 -37.1713 1696.34C-36.7727 1695.86 -36.0863 1695.77 -35.5991 1696.17C-35.1341 1696.54 -35.0455 1697.23 -35.422 1697.72C-35.6434 1697.98 -35.9755 1698.14 -36.2855 1698.14C-36.5291 1698.14 -36.7727 1698.05 -36.972 1697.89ZM-26.5648 1683.52C-27.0741 1683.17 -27.2291 1682.48 -26.8748 1681.97H-26.8969C-26.5426 1681.46 -25.8562 1681.33 -25.3469 1681.66C-24.8376 1681.99 -24.7048 1682.68 -25.0369 1683.19C-25.2583 1683.52 -25.5905 1683.7 -25.9669 1683.7C-26.1662 1683.7 -26.3876 1683.63 -26.5648 1683.52ZM-17.1319 1668.46C-17.6412 1668.15 -17.8183 1667.47 -17.5083 1666.96C-17.1983 1666.43 -16.5119 1666.25 -15.9804 1666.58C-15.449 1666.89 -15.294 1667.56 -15.604 1668.09C-15.8033 1668.44 -16.1797 1668.62 -16.5562 1668.62C-16.7554 1668.62 -16.9547 1668.58 -17.1319 1668.46ZM-7.96468 1653.25C-8.49611 1652.94 -8.6511 1652.26 -8.3411 1651.73C-8.00896 1651.22 -7.32253 1651.04 -6.81324 1651.37C-6.28181 1651.68 -6.12681 1652.37 -6.43681 1652.9C-6.65824 1653.23 -7.01252 1653.41 -7.38895 1653.41C-7.58824 1653.41 -7.78753 1653.37 -7.96468 1653.25ZM224.891 1646.24C224.271 1646.26 223.762 1645.77 223.739 1645.17C223.717 1644.55 224.182 1644.04 224.802 1644.02C225.422 1644 225.932 1644.46 225.954 1645.08C225.976 1645.68 225.511 1646.21 224.891 1646.24ZM206.977 1645.1C206.379 1645.02 205.959 1644.44 206.069 1643.84C206.158 1643.24 206.711 1642.83 207.331 1642.91C207.929 1643.02 208.35 1643.58 208.239 1644.2C208.173 1644.73 207.686 1645.13 207.154 1645.13C207.088 1645.13 207.044 1645.13 206.977 1645.1ZM241.232 1642.45C241.033 1641.87 241.365 1641.25 241.941 1641.05C242.517 1640.87 243.159 1641.18 243.336 1641.76C243.535 1642.36 243.203 1642.98 242.627 1643.16C242.517 1643.2 242.406 1643.22 242.295 1643.22C241.83 1643.22 241.387 1642.91 241.232 1642.45ZM189.551 1641.08C188.953 1640.9 188.621 1640.28 188.82 1639.7C188.975 1639.1 189.595 1638.77 190.193 1638.95C190.769 1639.13 191.101 1639.75 190.924 1640.32C190.791 1640.81 190.348 1641.12 189.861 1641.12C189.772 1641.12 189.661 1641.1 189.551 1641.08ZM1.73395 1638.37C1.2468 1638.02 1.13609 1637.33 1.49038 1636.85V1636.82C1.84466 1636.34 2.53109 1636.22 3.01824 1636.58C3.52753 1636.94 3.63824 1637.62 3.28395 1638.13C3.28395 1638.13 3.28395 1638.13 3.28395 1638.11C3.06252 1638.42 2.73038 1638.57 2.37609 1638.57C2.15466 1638.57 1.93324 1638.51 1.73395 1638.37ZM172.744 1634.94C172.191 1634.7 171.925 1634.06 172.168 1633.48C172.412 1632.93 173.054 1632.66 173.63 1632.91C174.183 1633.15 174.449 1633.79 174.206 1634.34C174.028 1634.79 173.63 1635.03 173.187 1635.03C173.054 1635.03 172.899 1635.01 172.744 1634.94ZM257.042 1634.57C256.666 1634.08 256.755 1633.39 257.242 1633.02C257.729 1632.64 258.415 1632.73 258.792 1633.22C259.168 1633.7 259.08 1634.39 258.593 1634.77C258.393 1634.92 258.172 1634.99 257.928 1634.99C257.596 1634.99 257.264 1634.85 257.042 1634.57ZM156.668 1627.19C156.137 1626.88 155.938 1626.22 156.226 1625.69C156.513 1625.13 157.178 1624.93 157.731 1625.22L157.709 1625.24C158.263 1625.53 158.462 1626.2 158.174 1626.73C157.975 1627.1 157.598 1627.3 157.2 1627.3C157.023 1627.3 156.846 1627.28 156.668 1627.19ZM12.6504 1624.36C12.1854 1623.96 12.1412 1623.27 12.5397 1622.81C12.9604 1622.34 13.6469 1622.3 14.1119 1622.7C14.5769 1623.12 14.599 1623.83 14.2004 1624.27C13.979 1624.51 13.6912 1624.65 13.3812 1624.65C13.1154 1624.65 12.8497 1624.56 12.6504 1624.36ZM269.265 1621.81C268.734 1621.48 268.601 1620.79 268.933 1620.28C269.265 1619.75 269.952 1619.62 270.461 1619.95C270.97 1620.28 271.125 1620.97 270.793 1621.48C270.572 1621.81 270.218 1621.99 269.863 1621.99C269.642 1621.99 269.443 1621.92 269.265 1621.81ZM141.058 1618.71C141.058 1618.71 141.058 1618.71 141.058 1618.73C140.526 1618.42 140.305 1617.76 140.615 1617.23C140.903 1616.67 141.567 1616.48 142.098 1616.79C142.652 1617.07 142.851 1617.74 142.563 1618.27C142.342 1618.65 141.965 1618.85 141.589 1618.85C141.412 1618.84 141.213 1618.82 141.058 1618.71ZM25.2276 1611.87C24.8291 1611.38 24.9176 1610.7 25.3826 1610.3C25.8476 1609.92 26.5562 1609.99 26.9327 1610.45C27.3312 1610.92 27.2648 1611.62 26.7777 1612.02C26.5784 1612.18 26.3348 1612.27 26.0691 1612.27C25.7591 1612.27 25.4491 1612.14 25.2276 1611.87ZM125.314 1610.56C124.782 1610.3 124.539 1609.63 124.827 1609.08C125.092 1608.53 125.757 1608.3 126.288 1608.57H126.31C126.842 1608.84 127.085 1609.5 126.797 1610.05C126.62 1610.45 126.222 1610.67 125.801 1610.67C125.646 1610.67 125.491 1610.65 125.314 1610.56ZM276.905 1605.87C276.329 1605.69 275.997 1605.07 276.196 1604.47C276.371 1603.9 276.993 1603.57 277.569 1603.77C278.167 1603.94 278.477 1604.56 278.3 1605.14C278.145 1605.63 277.702 1605.91 277.237 1605.91C277.126 1605.91 277.015 1605.89 276.905 1605.87ZM109.194 1603.34C108.618 1603.12 108.352 1602.48 108.574 1601.91C108.795 1601.33 109.437 1601.06 110.013 1601.29C110.589 1601.51 110.855 1602.15 110.633 1602.72C110.456 1603.17 110.035 1603.43 109.615 1603.43C109.46 1603.43 109.327 1603.41 109.194 1603.34ZM39.8642 1601.88C39.5984 1601.35 39.8199 1600.69 40.3513 1600.4C40.9049 1600.13 41.5692 1600.35 41.857 1600.89C42.1227 1601.44 41.9013 1602.1 41.3477 1602.37C41.1927 1602.46 41.0377 1602.51 40.8606 1602.51C40.462 1602.5 40.0634 1602.28 39.8642 1601.88ZM92.4537 1597.88C91.878 1597.74 91.5237 1597.14 91.6566 1596.55C91.8116 1595.95 92.4094 1595.59 93.0073 1595.75V1595.73C93.583 1595.88 93.9594 1596.48 93.8044 1597.08C93.6937 1597.59 93.2287 1597.92 92.7416 1597.92C92.653 1597.92 92.5423 1597.9 92.4537 1597.88ZM56.4714 1595.73C56.3385 1595.13 56.715 1594.53 57.335 1594.42H57.3128C57.9328 1594.29 58.5085 1594.66 58.6414 1595.28C58.7521 1595.86 58.3757 1596.46 57.7778 1596.59C57.6893 1596.59 57.6228 1596.62 57.5564 1596.62C57.0471 1596.61 56.5821 1596.26 56.4714 1595.73ZM75.1601 1595.26C74.5401 1595.22 74.0751 1594.71 74.0972 1594.09C74.1193 1593.49 74.6508 1593.01 75.2708 1593.05C75.8686 1593.07 76.3336 1593.58 76.3115 1594.2C76.2893 1594.8 75.8022 1595.26 75.2043 1595.26C75.1822 1595.26 75.1822 1595.26 75.1601 1595.26ZM280.935 1588.6C280.315 1588.49 279.916 1587.93 280.005 1587.34C280.093 1586.72 280.669 1586.32 281.267 1586.41C281.865 1586.49 282.285 1587.05 282.197 1587.67C282.108 1588.2 281.643 1588.6 281.09 1588.6C281.045 1588.6 280.979 1588.6 280.935 1588.6ZM283.016 1570.95C282.418 1570.9 281.975 1570.35 282.02 1569.75C282.086 1569.13 282.618 1568.69 283.238 1568.76C283.835 1568.8 284.278 1569.33 284.234 1569.95C284.168 1570.53 283.68 1570.95 283.127 1570.95C283.083 1570.95 283.06 1570.95 283.016 1570.95ZM284.699 1553.26C284.079 1553.19 283.636 1552.64 283.703 1552.04C283.769 1551.42 284.323 1550.98 284.943 1551.06C285.54 1551.11 285.983 1551.66 285.917 1552.28C285.85 1552.84 285.363 1553.26 284.81 1553.26C284.765 1553.26 284.721 1553.26 284.699 1553.26ZM287.268 1535.7C286.648 1535.56 286.271 1534.97 286.404 1534.37C286.537 1533.79 287.113 1533.39 287.711 1533.53C288.308 1533.66 288.707 1534.23 288.574 1534.83C288.463 1535.36 287.998 1535.72 287.489 1535.72C287.4 1535.72 287.334 1535.7 287.268 1535.7ZM292.183 1518.65C291.608 1518.42 291.342 1517.78 291.586 1517.21C291.807 1516.65 292.471 1516.37 293.025 1516.61C293.601 1516.85 293.866 1517.49 293.623 1518.07C293.446 1518.49 293.025 1518.74 292.604 1518.74C292.449 1518.74 292.316 1518.71 292.183 1518.65ZM300.819 1503.24C300.354 1502.86 300.266 1502.15 300.642 1501.69C301.041 1501.2 301.727 1501.11 302.214 1501.51C302.679 1501.89 302.768 1502.57 302.389 1503.06C302.168 1503.32 301.836 1503.48 301.526 1503.48C301.284 1503.48 301.041 1503.39 300.819 1503.24ZM503.383 1501.44C503.383 1501.44 503.383 1501.44 503.383 1501.42C502.785 1501.4 502.32 1500.87 502.342 1500.27C502.387 1499.65 502.896 1499.18 503.516 1499.23C504.114 1499.25 504.579 1499.78 504.557 1500.38C504.512 1500.98 504.025 1501.44 503.45 1501.44C503.427 1501.44 503.405 1501.44 503.383 1501.44ZM520.101 1500.27C520.035 1499.67 520.5 1499.14 521.12 1499.1C521.717 1499.05 522.249 1499.49 522.293 1500.11C522.337 1500.71 521.895 1501.24 521.275 1501.29C521.253 1501.29 521.208 1501.29 521.186 1501.29C520.61 1501.29 520.123 1500.87 520.101 1500.27ZM485.624 1499.49C485.027 1499.38 484.606 1498.83 484.717 1498.23C484.805 1497.61 485.381 1497.21 485.979 1497.3C486.577 1497.39 486.997 1497.97 486.887 1498.56C486.82 1499.12 486.333 1499.49 485.802 1499.49C485.735 1499.49 485.691 1499.49 485.624 1499.49ZM537.638 1497.7C537.483 1497.1 537.86 1496.5 538.458 1496.35C539.033 1496.19 539.631 1496.57 539.786 1497.15C539.941 1497.74 539.565 1498.34 538.989 1498.5C538.9 1498.52 538.812 1498.54 538.723 1498.54C538.214 1498.54 537.771 1498.19 537.638 1497.7ZM468.154 1495.93C467.556 1495.77 467.179 1495.17 467.334 1494.6C467.467 1494 468.065 1493.62 468.663 1493.78C469.261 1493.91 469.637 1494.51 469.482 1495.11C469.349 1495.62 468.907 1495.95 468.397 1495.95C468.331 1495.95 468.242 1495.95 468.154 1495.93ZM554.401 1491.9C554.135 1491.35 554.356 1490.68 554.91 1490.42C555.441 1490.15 556.106 1490.37 556.371 1490.92C556.659 1491.48 556.416 1492.14 555.884 1492.41C555.707 1492.47 555.552 1492.52 555.397 1492.52C554.976 1492.52 554.578 1492.3 554.401 1491.9ZM450.949 1491.39C450.949 1491.39 450.949 1491.39 450.949 1491.37C450.351 1491.21 450.019 1490.59 450.174 1490.02C450.351 1489.42 450.949 1489.09 451.546 1489.24C452.122 1489.42 452.476 1490.02 452.299 1490.61C452.166 1491.1 451.724 1491.41 451.236 1491.41C451.126 1491.41 451.037 1491.41 450.949 1491.39ZM313.463 1490.84C313.109 1490.35 313.219 1489.64 313.729 1489.29H313.706C314.216 1488.93 314.902 1489.04 315.256 1489.55C315.611 1490.04 315.5 1490.73 315.013 1491.08C315.013 1491.08 315.013 1491.08 315.013 1491.1C314.814 1491.24 314.592 1491.3 314.371 1491.3C314.016 1491.3 313.684 1491.15 313.463 1490.84ZM433.854 1486.47C433.278 1486.32 432.924 1485.7 433.101 1485.1C433.278 1484.53 433.876 1484.17 434.474 1484.35C435.072 1484.53 435.404 1485.12 435.227 1485.72C435.094 1486.21 434.651 1486.52 434.164 1486.52C434.076 1486.52 433.965 1486.52 433.854 1486.47ZM569.391 1482.46C568.993 1482.02 569.037 1481.31 569.502 1480.92C569.945 1480.52 570.654 1480.56 571.052 1481C571.451 1481.47 571.406 1482.18 570.964 1482.58C570.742 1482.75 570.476 1482.84 570.233 1482.84C569.923 1482.84 569.613 1482.73 569.391 1482.46ZM328.852 1482.02C328.609 1481.47 328.874 1480.83 329.428 1480.58C330.004 1480.34 330.646 1480.61 330.889 1481.18C331.111 1481.74 330.867 1482.4 330.291 1482.62C330.159 1482.69 330.004 1482.71 329.871 1482.71C329.428 1482.71 329.029 1482.46 328.852 1482.02ZM416.76 1481.8C416.162 1481.65 415.808 1481.05 415.963 1480.45C416.118 1479.85 416.715 1479.5 417.313 1479.66C417.911 1479.81 418.265 1480.41 418.11 1481.01C417.978 1481.51 417.535 1481.85 417.048 1481.85C416.937 1481.85 416.848 1481.82 416.76 1481.8ZM399.51 1477.93C398.913 1477.82 398.514 1477.24 398.625 1476.62C398.735 1476.04 399.311 1475.65 399.909 1475.76C400.529 1475.87 400.905 1476.44 400.795 1477.04C400.706 1477.57 400.241 1477.95 399.71 1477.95C399.643 1477.95 399.577 1477.95 399.51 1477.93ZM345.725 1476.6C345.592 1476 345.969 1475.4 346.567 1475.27H346.589C347.164 1475.14 347.762 1475.53 347.895 1476.13C348.028 1476.73 347.629 1477.31 347.032 1477.44C346.965 1477.46 346.899 1477.46 346.81 1477.46C346.301 1477.46 345.836 1477.11 345.725 1476.6ZM382.04 1475.44C381.442 1475.4 380.977 1474.85 381.043 1474.25C381.087 1473.63 381.641 1473.19 382.239 1473.25C382.859 1473.3 383.302 1473.83 383.235 1474.45C383.191 1475.03 382.704 1475.44 382.15 1475.44C382.106 1475.44 382.084 1475.44 382.04 1475.44ZM363.284 1474.1C363.262 1473.48 363.727 1472.97 364.347 1472.92C364.945 1472.9 365.477 1473.37 365.499 1473.96C365.543 1474.58 365.078 1475.09 364.458 1475.14C364.436 1475.14 364.436 1475.14 364.414 1475.14C363.816 1475.14 363.329 1474.69 363.284 1474.1ZM580.972 1469.09C580.441 1468.78 580.286 1468.1 580.618 1467.58C580.928 1467.05 581.614 1466.88 582.124 1467.21C582.655 1467.52 582.81 1468.2 582.5 1468.74C582.279 1469.06 581.924 1469.26 581.548 1469.26C581.349 1469.27 581.149 1469.2 580.972 1469.09ZM588.324 1452.99C587.748 1452.82 587.394 1452.22 587.571 1451.62C587.726 1451.05 588.346 1450.69 588.921 1450.87C589.519 1451.02 589.874 1451.64 589.696 1452.22C589.564 1452.71 589.121 1453.04 588.634 1453.04C588.523 1453.04 588.434 1453.01 588.324 1452.99ZM589.785 1434.42C589.763 1433.8 590.25 1433.28 590.87 1433.26C591.468 1433.26 591.977 1433.73 591.999 1434.35C592.021 1434.97 591.534 1435.48 590.914 1435.48C590.914 1435.48 590.914 1435.48 590.892 1435.48C590.294 1435.48 589.807 1435.01 589.785 1434.42ZM586.22 1417.54C585.976 1416.99 586.242 1416.32 586.796 1416.1C587.371 1415.84 588.014 1416.1 588.257 1416.68C588.501 1417.23 588.235 1417.87 587.681 1418.12C587.549 1418.18 587.394 1418.21 587.239 1418.21C586.818 1418.21 586.397 1417.96 586.22 1417.54Z" fill="white"/>
<defs>
<filter id="filter0_f_410_37" x="291.52" y="0.509521" width="989.676" height="1047.28" filterUnits="userSpaceOnUse" color-interpolation-filters="sRGB">
<feFlood flood-opacity="0" result="BackgroundImageFix"/>
<feBlend mode="normal" in="SourceGraphic" in2="BackgroundImageFix" result="shape"/>
<feGaussianBlur stdDeviation="150" result="effect1_foregroundBlur_410_37"/>
</filter>
<radialGradient id="paint0_radial_410_37" cx="0" cy="0" r="1" gradientUnits="userSpaceOnUse" gradientTransform="translate(734.685 489.957) rotate(73.0604) scale(200.453 178.839)">
<stop stop-color="#3A76D1"/>
<stop offset="1" stop-color="#4868D8" stop-opacity="0"/>
</radialGradient>
</defs>
</svg>
