<svg xmlns="http://www.w3.org/2000/svg" xmlns:xlink="http://www.w3.org/1999/xlink"><defs><style>
    .sprite-symbol-usage {display: none;}
    .sprite-symbol-usage:target {display: inline;}
  </style><symbol fill="none" viewBox="0 0 14 14" id="arrow-right"><g clip-path="url(#arrow-right_a)"><path d="M12.277 1.063H2.412a.661.661 0 0 0 0 1.322h8.269l-8.737 8.737a.661.661 0 0 0 0 .935l.177-.177a.41.41 0 0 0 .581 0l.177.177 8.737-8.737v8.27a.661.661 0 0 0 1.322 0V1.723a.661.661 0 0 0-.661-.661Z" fill="currentColor" stroke="currentColor" stroke-width=".5" /></g><defs></defs></symbol><clipPath id="arrow-right_a"><path fill="#fff" d="M0 0h14v14H0z" /></clipPath><symbol fill="none" viewBox="0 0 17 16" id="arrow-right-lg"><path d="M16.142 1a1 1 0 0 0-1-1h-9a1 1 0 0 0 0 2h8v8a1 1 0 0 0 2 0V1ZM1.707 15.85 15.85 1.706 14.435.293.293 14.435l1.414 1.414Z" fill="currentColor" /></symbol></defs><use id="arrow-right-usage" xlink:href="#arrow-right" class="sprite-symbol-usage" /><use id="arrow-right-lg-usage" xlink:href="#arrow-right-lg" class="sprite-symbol-usage" /></svg>